<svg width="33" height="55" viewBox="0 0 33 55" fill="none" xmlns="http://www.w3.org/2000/svg">
<g clip-path="url(#clip0_1154_124)">
<path d="M3.32083 31.7493C3.72126 31.8569 3.15361 32.6769 3.54818 32.9212C3.54818 32.9212 2.23247 33.6148 1.57534 32.8529C1.57534 32.8529 1.27171 32.1913 0 31.8583C0 31.8583 1.25558 31.1939 3.32083 31.7478V31.7493Z" fill="#6F1B1F"/>
<path d="M32.2109 2.25513C32.2109 2.25513 31.6653 2.70586 31.6653 3.24675C31.6653 3.24675 32.2109 8.2979 31.6653 10.9587C31.6653 10.9587 31.347 12.1771 31.3924 12.9885C31.4379 13.7998 32.0246 16.0549 31.8002 17.0029C31.5743 17.9495 30.8922 20.7004 31.0287 21.6484C31.1651 22.595 32.029 25.1656 31.9835 25.708C31.9835 25.708 31.2105 25.3023 30.1178 25.1671C29.0265 25.0318 26.9334 25.3924 26.0239 24.8966C26.0239 24.8966 23.4307 23.4077 21.2921 23.4077C19.1535 23.4077 17.562 23.6331 17.0149 23.3627C16.4692 23.0922 14.6489 22.4161 14.0578 22.4161C13.4667 22.4161 18.1531 12.7195 18.6078 12.3589C19.0625 11.9983 24.9767 5.54841 24.9767 5.54841C24.9767 5.54841 30.7998 2.25658 32.2109 2.25658V2.25513Z" fill="#A0282E"/>
<path opacity="0.6" d="M20.2579 11.9707L16.9048 15.5097C15.4541 18.4613 13.6808 22.4147 14.0577 22.4147C14.6488 22.4147 16.4691 23.0908 17.0148 23.3612C17.5604 23.6317 19.1534 23.4063 21.292 23.4063C21.6528 23.4063 22.0268 23.4485 22.3979 23.5197C25.0396 18.928 27.7077 10.0369 28.9941 6.2885C29.8243 3.86616 31.0491 2.87017 32.004 2.46742C32.1155 2.33656 32.2108 2.25659 32.2108 2.25659C30.8687 2.25659 25.5354 5.23436 25.0176 5.52516L20.2579 11.9707Z" fill="#7D1F23"/>
<path d="M14.439 22.4641C15.2134 22.6255 16.56 23.1344 17.0161 23.3612C17.4298 23.5662 18.4463 23.4863 19.8441 23.4354C22.6222 19.7568 26.4036 10.5545 26.8877 8.92893C27.4788 6.94423 29.4238 3.95483 29.4238 3.95483H27.957C27.3585 4.25872 26.7865 4.55969 26.3083 4.81559L14.439 22.4626V22.4641Z" fill="#68191E"/>
<path d="M15.2002 22.6706C15.9043 22.8916 16.6875 23.1984 17.0146 23.3612C17.0484 23.3772 17.0865 23.3918 17.1276 23.4049C18.7102 21.1672 26.4857 8.2674 26.4857 8.2674L15.2002 22.6691V22.6706Z" fill="#3D0B14"/>
<path d="M32.2107 2.25515C32.2107 2.25515 29.9357 3.33692 29.0263 4.33C28.1169 5.32161 11.4775 34.2007 2.3335 33.2076C2.3335 33.2076 3.13877 32.9212 3.13877 31.8845C3.13877 30.8478 2.41124 26.4277 3.82083 23.9472C5.23042 21.4667 6.73242 19.0763 5.82301 17.2734C4.91359 15.469 3.36612 13.2139 4.54983 12.0419C4.54983 12.0419 18.0165 8.52475 24.2489 5.59351C24.2489 5.59351 30.4813 1.7608 32.2107 2.25661V2.25515Z" fill="#B72C33"/>
<path d="M32.2107 2.25513C32.2107 2.25513 26.2629 4.30234 23.715 6.64762C21.5838 8.60905 10.6532 14.8321 5.67637 16.9869C5.72624 17.0829 5.77612 17.1789 5.82305 17.2734C6.73247 19.0778 5.23193 21.4681 3.82087 23.9472C3.65073 24.2481 3.51138 24.5767 3.39844 24.9243C6.14135 24.4183 9.86261 23.1591 13.2494 20.0897C19.6197 14.316 26.2629 4.30234 32.2107 2.25513Z" fill="#95252A"/>
<path opacity="0.3" d="M19.0741 17.112C10.3143 29.4418 4.78011 29.7966 2.97889 29.4782C3.03022 30.5803 3.13877 31.4832 3.13877 31.883C3.13877 32.9197 2.3335 33.2062 2.3335 33.2062C11.4775 34.1978 28.1169 5.32014 29.0263 4.32852C29.2712 4.06099 29.6159 3.78764 29.9885 3.53029C27.6152 3.48085 19.0755 17.112 19.0755 17.112H19.0741Z" fill="#7D1F23"/>
<path d="M30.1176 25.1642C31.2089 25.2994 31.9834 25.7051 31.9834 25.7051C32.0289 25.1642 31.1649 22.5935 31.0285 21.6455C30.8921 20.699 31.5742 17.948 31.8 17C32.0259 16.0535 31.4377 13.7983 31.3923 12.9856C31.3468 12.1742 31.6651 10.9558 31.6651 10.9558C32.0025 9.3157 31.9233 6.76541 31.8132 5.05261C30.8408 6.97769 29.9959 15.136 29.4238 17.7198C28.9163 20.0098 27.206 23.6011 26.4844 25.058C27.5155 25.295 29.1833 25.0479 30.1176 25.1627V25.1642Z" fill="#8E242B"/>
<path opacity="0.4" d="M24.9883 5.15149C24.5292 5.41902 24.249 5.59205 24.249 5.59205C18.0166 8.52329 4.54992 12.0405 4.54992 12.0405C4.04681 12.5392 4.03801 13.2342 4.26389 14.0063C7.42338 12.9216 14.0078 11.725 23.1093 6.53859C23.8222 6.13293 24.4192 5.61822 24.9897 5.15149H24.9883Z" fill="#B5523B"/>
<path d="M21.9316 8.85041C18.6401 11.8064 8.4283 16.9709 6.08143 18.1414C6.24864 19.5721 5.34803 21.2718 4.33447 23.0501C9.66628 21.9261 20.8887 10.5385 21.7013 9.58031C22.5653 8.56252 27.4791 4.7807 27.4791 4.7807C26.5051 5.13111 21.9316 8.85041 21.9316 8.85041Z" fill="#862227"/>
<path opacity="0.2" d="M21.9318 11.3237C21.9318 11.3237 10.9088 26.9308 3.18463 25.7443C3.00275 26.6312 2.94848 27.5865 2.95288 28.4793C4.99466 28.914 11.9165 27.9035 21.9332 11.3222L21.9318 11.3237Z" fill="#B5523B"/>
<path d="M33.0002 54.6627C33.0002 54.8488 32.8007 55 32.5528 55C32.3064 55 32.1055 54.8488 32.1055 54.6627V0.337325C32.1055 0.151215 32.305 0 32.5528 0C32.7993 0 33.0002 0.151215 33.0002 0.337325V54.6627Z" fill="#868686"/>
</g>
<defs>
<clipPath id="clip0_1154_124">
<rect width="33" height="55" fill="white"/>
</clipPath>
</defs>
</svg>
