<svg width="77" height="79" viewBox="0 0 77 79" fill="none" xmlns="http://www.w3.org/2000/svg">
<path d="M0.113541 37.8153C0.713692 35.4762 3.53632 35.0441 5.58682 35.8373C6.54436 36.2074 7.43604 36.7185 8.27527 37.3154C9.15963 36.0562 10.2806 35.0994 11.9408 35.9095C12.9215 36.3879 13.6461 37.3222 14.256 38.2723C14.4377 37.3459 15.3806 36.3654 16.376 36.353C17.7764 36.3349 18.7241 37.5095 19.4231 38.4844C19.4755 38.5566 19.5219 38.6322 19.5707 38.7056C20.9552 37.2116 23.1252 40.5594 23.5948 41.4294C24.2767 42.6942 24.8317 44.0257 25.4111 45.3323C25.8332 46.2857 26.1918 47.3588 26.8529 48.2028C29.1145 47.2787 31.6675 46.8025 33.9949 46.3794C37.4884 45.7441 40.9991 45.3255 44.4755 44.6011C47.2652 44.02 50.6733 43.3408 53.4216 44.424C55.6575 45.3052 57.6409 46.7269 59.5121 48.1385C61.6821 49.7768 63.9778 51.6171 65.2317 53.972C65.2317 53.9742 65.2317 53.9765 65.2342 53.9776C65.7819 53.2984 66.4369 52.662 67.2822 52.442C67.6958 52.3336 67.93 52.8707 67.5701 53.0738C66.4003 53.7328 65.6355 55.0902 64.9658 56.1463C64.0912 57.524 63.3069 58.9502 62.5018 60.364C60.533 63.8201 58.1715 67.0833 55.9783 70.4266C56.0246 70.5721 56.0454 70.7188 56.0295 70.8678C56.0429 70.9975 56.0137 71.1081 55.9478 71.2401C55.9271 71.2819 55.8966 71.3168 55.8612 71.3484C57.6543 72.6009 58.8997 74.3859 60.1598 76.1191C63.0678 68.9676 69.1693 63.4534 73.6887 57.1415C71.7175 56.46 69.8682 55.4343 68.1141 54.3917C67.1261 53.805 68.0178 52.3675 69.0375 52.9294C71.1661 54.1029 73.3666 55.0744 75.8221 55.4862C76.5601 55.6103 76.9102 56.5288 76.5259 57.0851C71.5918 64.2151 64.5365 70.1208 61.3357 78.2144C61.0612 78.9083 60.1049 79.0652 59.6523 78.4175C58.0593 76.1405 56.687 73.4077 54.0803 71.9713C53.7241 71.7749 53.5789 71.3259 53.8021 70.9919C53.8326 70.9467 53.8631 70.9016 53.8936 70.8565C53.474 70.3769 53.113 69.8094 52.747 69.3535C52.4079 68.9315 52.1017 68.487 51.7602 68.065C51.7212 68.0176 51.6821 67.9691 51.6431 67.9217C51.4992 68.0131 51.3247 68.0729 51.1234 68.083C49.5889 68.1654 48.0544 67.8912 46.5382 67.6825C44.7085 67.4297 42.8837 67.1454 41.0564 66.8746C37.6763 66.3725 34.284 65.9301 30.86 65.8105C28.1154 65.7146 25.1598 65.6323 22.8642 64.0582C20.6234 62.5226 19.378 60.0312 17.5287 58.1457C15.0196 55.5866 12.3641 53.1528 9.7732 50.666C7.43483 48.4206 5.25991 46.0646 3.02644 43.7346C1.46875 42.1098 -0.491486 40.1679 0.11232 37.8142L0.113541 37.8153ZM19.4963 40.9938C18.9913 39.94 18.3655 38.8861 17.5056 38.0432C17.1689 37.7137 16.6663 37.3064 16.1516 37.5343C15.4782 37.8311 15.3514 38.6582 14.7342 39.0474C14.8769 39.2855 15.0159 39.518 15.1513 39.7346C16.2906 41.5648 17.6519 43.3013 19.0145 44.9927C19.8281 46.0025 20.7027 46.9718 21.6297 47.8948C21.9603 48.2242 22.3994 48.539 22.8117 48.873C22.3433 47.923 21.8932 46.9661 21.4602 46.0037C20.7222 44.3664 20.2721 42.6085 19.4987 40.9938H19.4963ZM23.2996 43.2663C22.8495 42.1966 22.3445 41.127 21.6322 40.1825C21.1455 39.5371 20.6575 39.3329 19.9379 39.2855C20.6417 40.4872 21.1211 41.7882 21.6749 43.0553C22.6007 45.1687 23.69 47.2053 24.789 49.242C25.0403 49.0863 25.3001 48.9419 25.5648 48.8042C24.4206 47.1839 24.0486 45.0468 23.3009 43.2674L23.2996 43.2663ZM12.7081 50.8894C15.2379 53.2137 17.952 55.502 20.1769 58.0848C21.9042 60.0899 23.1459 62.4154 25.9125 63.3079C27.2494 63.7389 28.7388 63.7558 30.1379 63.8077C31.7249 63.8664 33.2972 63.942 34.8781 64.0887C37.7178 64.3527 40.5441 64.7555 43.3667 65.1448C46.0161 65.5104 48.7961 65.6469 51.393 66.2517C51.6065 66.3014 51.7687 66.3939 51.8846 66.5124C52.8056 66.667 53.7814 67.8901 54.3157 68.4644C54.5121 68.6754 54.7804 68.9146 55.0464 69.1719C57.303 65.9166 59.6828 62.7257 61.7077 59.3429C62.6006 57.8501 63.485 56.355 64.5169 54.939C64.6523 54.7539 64.7926 54.5576 64.9414 54.359C64.8914 54.3511 64.8402 54.3308 64.7938 54.2868C63.0715 52.6597 61.2308 51.0913 59.3328 49.6358C57.3798 48.1373 55.2061 46.6039 52.8336 45.7193C49.8256 44.5977 46.0332 45.7633 43.0495 46.4155C41.5943 46.7337 40.1208 46.9368 38.646 47.1568C36.3284 47.5021 28.4875 48.3901 25.3318 50.8093C25.2343 51.0315 25.0281 51.2053 24.7939 51.2854C23.8717 52.2411 23.6583 53.4101 24.6573 54.8397C24.7232 54.9345 24.7963 55.0247 24.8695 55.1139C27.5531 54.1706 30.4465 53.8095 33.2874 53.5297C36.5028 53.2126 39.7646 53.1235 42.9959 53.2611C44.4743 53.3243 44.4731 55.467 42.9959 55.3858C40.0988 55.2267 37.1908 55.2922 34.295 55.4163C31.2674 55.5472 27.8605 55.6803 25.0342 56.7996C24.689 56.9361 24.2352 56.9756 23.9608 56.671C22.3531 54.8927 21.6773 52.8008 22.8142 51.0225C22.0908 50.8454 21.5199 50.209 21.0088 49.7385C20.2831 49.0694 19.6256 48.3382 18.984 47.6014C17.6422 46.0601 16.4102 44.433 15.3258 42.7281C14.4658 41.3763 13.7473 39.9535 12.8776 38.6074C12.4665 37.971 11.9896 37.3188 11.3199 36.8934C10.4209 36.3225 9.42067 37.118 8.84492 37.734C10.6295 39.123 12.1677 40.8742 13.5631 42.4573C16.1565 45.4 18.7144 48.4115 21.9042 50.8329C22.1481 51.018 21.8383 51.3227 21.587 51.2132C18.9169 50.0363 16.9237 48.0685 14.9732 46.0589C12.9252 43.9501 10.9918 41.7351 8.77296 39.773C7.43483 38.5893 4.31455 35.8576 2.37262 37.3527C0.0196152 39.1648 4.00961 42.2745 5.2038 43.6138C7.50314 46.1943 10.1489 48.5311 12.7105 50.8849L12.7081 50.8894Z" fill="black"/>
<path d="M45.2564 38.6639C43.7679 39.7086 42.2479 40.7177 40.7448 41.7446C40.6718 41.7946 40.5964 41.8346 40.5221 41.8669C40.4844 41.898 40.4418 41.928 40.3956 41.9524C40.1704 42.0736 39.8759 42.068 39.6483 41.9547C39.5814 41.9535 39.5144 41.9435 39.4499 41.9269C39.1651 41.998 38.8463 41.9591 38.5481 41.7446C37.1254 40.7177 35.6881 39.7086 34.28 38.6639C30.3466 35.7454 26.2671 32.4791 23.7905 28.2492C21.4599 24.2705 20.552 19.3004 22.773 15.0627C24.9393 10.9307 29.8853 8.31448 34.7047 9.47142C37.1084 10.0482 38.626 11.4741 39.6167 13.2823C40.6645 11.4741 42.2673 10.0482 44.8085 9.47142C49.9017 8.31448 55.1313 10.9295 57.4217 15.0627C59.7694 19.3004 58.8104 24.2705 56.3471 28.2492C53.7281 32.4791 49.4161 35.7454 45.2576 38.6639H45.2564ZM57.0457 19.576C56.6769 14.6838 52.808 11.0051 47.4397 10.7162C45.0069 10.585 42.7639 11.3374 41.2864 13.1378C40.8897 13.6213 40.5525 14.1414 40.258 14.6838C40.7619 16.003 41.071 17.4422 41.2889 18.8625C41.3546 19.2893 40.6292 19.4493 40.5209 19.027C40.2678 18.0412 39.9866 17.0321 39.6142 16.0585C39.2211 17.0321 38.9242 18.0423 38.6564 19.027C38.542 19.4493 37.7753 19.2893 37.8447 18.8625C38.0808 17.4144 38.4142 15.9474 38.9668 14.6071C38.6978 14.0925 38.3911 13.5991 38.0333 13.1378C36.6362 11.3374 34.5137 10.585 32.2123 10.7162C27.1348 11.0051 23.4753 14.6838 23.126 19.576C22.4481 29.0849 32.5762 35.1619 39.6142 39.982C47.0551 35.1631 57.7613 29.0861 57.0445 19.576H57.0457Z" fill="black"/>
<path d="M51.0322 14.4927C51.9712 14.3221 52.6755 14.6996 53.3011 15.3261C53.9499 15.9748 54.6554 17.1261 54.4207 18.0203C54.302 18.4714 53.6248 18.5135 53.3733 18.1442C52.9876 17.5761 52.9709 16.8456 52.6046 16.2471C52.2473 15.6651 51.5791 15.2045 50.9819 14.8375C50.8452 14.7534 50.8413 14.5289 51.0309 14.4939L51.0322 14.4927Z" fill="black"/>
<path d="M50.7396 18.8042C50.5204 18.3822 50.4396 17.9019 50.2547 17.4622C50.0487 16.9718 49.7775 16.5168 49.4896 16.0847C49.3435 15.8655 49.638 15.6716 49.7963 15.8148C50.5315 16.4814 51.4958 17.4077 51.5976 18.5393C51.6463 19.083 50.9599 19.2262 50.7407 18.8054L50.7396 18.8042Z" fill="black"/>
<path d="M47.8619 19.5698C47.6075 19.3099 47.4238 18.9573 47.2746 18.6569C47.0846 18.2741 46.8413 17.9018 46.6199 17.5283C46.4503 17.2418 46.9088 16.9147 47.2432 17.1733C47.9828 17.744 49.2279 18.7161 48.5261 19.5698C48.3659 19.7646 48.0283 19.7403 47.8619 19.5698Z" fill="black"/>
<path d="M69.1699 5.33966C68.4242 6.13387 67.3866 7.64919 66.2162 7.86968C65.8265 7.9428 65.3403 7.70431 65.3779 7.29708C65.4819 6.16762 66.8516 5.33066 67.6937 4.56681C68.7613 3.59822 69.9631 2.67464 71.1598 1.81629C70.022 1.16607 68.7075 0.614841 67.3628 0.595717C66.245 0.579967 65.5182 1.29881 64.9806 2.08966C63.6962 3.98183 62.9819 5.97976 61.2688 7.64582C61.116 7.79431 60.8152 7.59294 60.9518 7.42645C62.5896 5.44878 63.2651 2.91988 64.9844 1.01645C66.8766 -1.08047 70.0633 0.582217 72.1649 1.43043C72.4606 1.54968 72.4205 1.88942 72.2576 2.07616C71.2764 3.19774 70.1924 4.2507 69.1686 5.34191L69.1699 5.33966Z" fill="black"/>
<path d="M74.6584 14.0705C73.879 14.2116 71.9526 14.9368 71.5603 13.915C71.4161 13.5397 72.0279 13.2609 72.3098 13.1154C72.493 13.021 72.6995 12.9421 72.9138 12.8777C72.1838 12.6201 71.2291 12.6001 70.6224 12.6523C70.1756 12.6911 70.0794 12.0581 70.5172 11.9837C71.4772 11.8204 72.4254 11.7282 73.3724 11.9803C74.0959 12.1725 75.0234 12.5656 75.2248 13.2165C75.3326 13.5652 75.0936 13.9917 74.6571 14.0705H74.6584Z" fill="black"/>
<path d="M74.8436 22.7855C73.7527 23.3826 71.9935 22.5162 70.8954 22.2609C69.1099 21.8467 67.3148 21.4834 65.5054 21.2052C65.0542 21.1366 65.1652 20.3426 65.6128 20.3642C67.2969 20.448 68.975 20.6094 70.6507 20.8088C71.4874 20.9079 72.3229 21.021 73.1584 21.1366C73.7515 21.2179 74.2827 20.9829 74.8436 21.289C75.1623 21.4631 75.2721 21.7514 75.2471 22.036C75.2721 22.3206 75.1611 22.6089 74.8436 22.783V22.7855Z" fill="black"/>
<path d="M19.3344 5.78847C18.5406 5.01114 17.7684 4.12576 16.8717 3.45882C15.7966 2.66059 17.2117 1.3058 18.0127 2.35152C18.7442 3.30661 19.4158 4.23963 20.0108 5.28187C20.2467 5.69551 19.684 6.13123 19.3344 5.78847Z" fill="black"/>
<path d="M17.2572 9.95352C16.707 9.62109 15.9829 9.25882 15.4201 9.42184C15.4855 9.44741 15.5485 9.47725 15.6102 9.51454C16.0849 9.80541 15.9703 10.5278 15.2916 10.5108C14.7464 10.4969 14.1911 10.3669 13.8045 10.0292C13.5451 9.80222 13.564 9.47192 13.8045 9.2439C15.0133 8.09531 16.5433 8.50552 17.7836 9.37709C18.1613 9.6424 17.6576 10.1964 17.2572 9.95352Z" fill="black"/>
</svg>
