<svg width="92" height="68" viewBox="0 0 92 68" fill="none" xmlns="http://www.w3.org/2000/svg">
<path d="M21.0103 11.6201C11.1353 14.7547 4.01009 22.2909 1.22463 31.3836C-1.63056 40.7009 0.566521 50.7615 7.19178 58.3086C7.19518 58.3132 7.20028 58.3163 7.20539 58.321C5.69361 59.7845 4.06281 61.3844 3.18023 63.2274C2.93706 63.7354 3.49483 64.4974 4.12403 64.087C4.56276 63.8004 4.98279 63.4907 5.39092 63.167C5.40623 63.3823 5.47595 63.6022 5.62049 63.8159C6.64931 65.3414 9.73577 65.8788 11.506 66.3744C13.6249 66.9676 15.8798 67.471 18.1075 67.4942C19.1907 67.505 20.0104 66.5138 19.7179 65.5691C18.5122 61.6771 15.6859 58.4 14.9105 54.3732C14.6962 53.2597 13.147 53.1466 12.3631 53.7599C11.4397 54.4832 10.5486 55.2374 9.67965 56.0118C9.54021 55.8476 9.40077 55.6896 9.25112 55.541C-3.0505 41.579 3.79412 19.61 21.2909 12.2272C21.665 12.0692 21.398 11.4977 21.0103 11.6201ZM8.83959 60.1129C10.0147 59.0891 11.239 58.1119 12.4991 57.1749C13.3103 59.5909 14.6809 61.8087 15.691 64.1597C14.584 63.9414 13.4922 63.6316 12.4294 63.3219C11.4516 63.0369 10.4772 62.7163 9.53171 62.3508C8.76817 62.0565 8.05225 61.6028 7.21559 61.5826C7.75636 61.0886 8.29202 60.5914 8.83959 60.1144V60.1129Z" fill="white"/>
<path d="M84.6919 11.3316C86.2037 9.86803 87.8345 8.26818 88.7171 6.42517C88.9603 5.91873 88.4042 5.1552 87.7733 5.56562C87.3346 5.85214 86.9145 6.16188 86.5064 6.48557C86.4911 6.2703 86.4214 6.05038 86.2768 5.83665C85.248 4.31113 82.1616 3.77372 80.3913 3.27657C78.2724 2.6834 76.0175 2.18006 73.7882 2.15683C72.7049 2.14599 71.8853 3.13718 72.1777 4.08192C73.3834 7.97392 76.2097 11.2511 76.9851 15.2778C77.1994 16.3898 78.7486 16.5044 79.5325 15.8911C80.4559 15.1678 81.347 14.4136 82.216 13.6392C82.3554 13.8034 82.4949 13.9614 82.6445 14.1101C94.9444 28.0705 88.0998 50.041 70.6031 57.4238C70.2289 57.5818 70.4959 58.1533 70.8836 58.031C80.7569 54.8963 87.8838 47.3601 90.6693 38.269C93.5245 28.9517 91.3274 18.891 84.7021 11.344C84.6987 11.3393 84.6936 11.3362 84.6885 11.3301L84.6919 11.3316ZM83.0577 9.5397C81.8827 10.5634 80.6583 11.5407 79.3982 12.4792C78.587 10.0632 77.2164 7.84537 76.2063 5.49438C77.3133 5.71275 78.4051 6.0225 79.4679 6.33225C80.4457 6.61722 81.4201 6.93781 82.3656 7.30331C83.1292 7.59757 83.8451 8.05136 84.6817 8.07149C84.141 8.56554 83.6053 9.06269 83.0577 9.5397Z" fill="white"/>
<path d="M55.7415 18.6918C50.7135 18.852 47.0179 22.9502 45.3373 27.666C43.5222 22.9502 39.5319 18.8504 34.104 18.6918C28.2383 18.5191 24.9787 24.2972 24.079 29.4842C23.9032 29.6117 23.7291 29.7424 23.5498 29.8668C22.8724 30.3412 23.2464 31.0224 23.8601 31.2852C23.8394 31.5916 23.8239 31.8934 23.8204 32.1873C23.7894 34.7256 24.6771 36.7849 26.1009 38.4786C25.9544 39.2501 26.6904 40.1117 27.5384 39.9266C28.9277 41.1289 30.5928 42.1134 32.3303 42.9377C34.4591 43.9487 36.6792 44.7715 38.7269 45.9411C39.5733 46.4248 40.2955 46.9909 40.9367 47.7157C40.9488 47.7297 40.9574 47.7453 40.9694 47.7593C42.4794 48.904 43.6912 50.3924 44.6254 52.0675C44.7409 52.1624 44.8598 52.2542 44.9857 52.3428C45.3838 52.6243 45.8165 52.5746 46.1629 52.3599C46.9334 50.6708 47.9521 49.1217 49.269 47.9288C49.3156 47.8572 49.3604 47.7857 49.4173 47.7173C50.0102 46.9909 50.679 46.4263 51.4633 45.9426C53.3611 44.7746 55.4157 43.9503 57.3876 42.9393C61.5848 40.7883 65.3321 37.5563 65.2701 32.1889C65.2046 26.5695 62.1536 18.4911 55.7432 18.6949L55.7415 18.6918ZM29.5982 24.7155C30.1791 24.4107 30.7738 24.1276 31.384 23.9114C30.5411 24.5134 29.7172 25.137 28.9036 25.7732C29.1156 25.3999 29.3483 25.0468 29.5982 24.7155ZM31.6994 38.6326C31.9804 38.6404 32.27 38.5673 32.5268 38.3962C32.4768 38.6264 32.4975 38.8721 32.5785 39.1008C32.2786 38.953 31.9856 38.7959 31.6994 38.6326ZM30.648 31.1375C29.6413 32.0816 28.6468 33.0319 27.6591 33.9868C27.4367 33.1734 27.3385 32.2838 27.3626 31.3661C28.0245 30.8809 28.6692 30.3769 29.3052 29.8637C28.8398 30.4423 28.4985 31.0659 28.4227 31.741C28.371 32.2029 29.088 32.4253 29.4138 32.1111C30.9341 30.6476 32.4561 29.1793 34.0006 27.7298C32.8922 28.8729 31.777 30.0114 30.648 31.1375ZM32.563 22.3934C32.6113 22.3763 32.6561 22.3561 32.7043 22.3406C33.7334 22.0062 34.7555 21.9984 35.7501 22.2239C35.4105 22.4323 35.0727 22.6438 34.74 22.86C34.7331 22.563 34.5056 22.2877 34.0712 22.2706C33.5489 22.2504 33.0474 22.297 32.563 22.3919V22.3934ZM36.0604 40.5348C35.4605 40.3139 34.8572 40.0853 34.2591 39.8442C34.3039 39.8209 34.347 39.7991 34.3918 39.7695C34.7486 39.5269 35.102 39.2796 35.4571 39.0323C35.5743 39.46 35.938 39.8022 36.3999 39.9297C36.2862 40.1304 36.1707 40.3326 36.0604 40.5348ZM35.0624 30.2478C36.6654 28.3426 38.3029 26.4544 39.8559 24.5009C40.1093 24.7233 40.3575 24.9551 40.5989 25.1946C40.5299 25.2459 40.4592 25.2957 40.392 25.347C40.3334 25.3906 40.2731 25.4326 40.2162 25.4761C40.1421 25.5336 40.0697 25.5943 39.9956 25.6518C38.2081 27.0501 36.6206 28.6334 35.0641 30.2463L35.0624 30.2478ZM41.9399 43.2426C41.8434 43.1804 41.7468 43.1213 41.6503 43.0606C42.0967 42.6625 42.5466 42.2658 43 41.8739C42.6432 42.3281 42.2898 42.7822 41.9399 43.2426ZM43.9618 29.7875C42.0898 31.1048 40.2645 32.4751 38.4391 33.8438C39.9421 32.0256 41.6555 30.3365 43.4343 28.8076C43.6343 29.1342 43.817 29.4546 43.9825 29.7657C43.9756 29.7735 43.9687 29.7812 43.9618 29.7875ZM50.3739 32.0178C53.1077 29.086 55.9001 26.1947 58.558 23.2131C58.8028 23.4137 59.0355 23.6377 59.2561 23.8803C58.8752 23.9099 58.4994 24.067 58.2167 24.4029C55.8811 27.1901 53.187 29.6568 50.3722 32.0178H50.3739ZM61.4124 34.9169C61.2952 34.8392 61.1694 34.7832 61.0384 34.7474C61.2435 34.5639 61.4504 34.3819 61.6607 34.203C61.59 34.4503 61.5055 34.6883 61.4124 34.9185V34.9169ZM61.9709 30.9773C61.914 30.9975 61.8589 31.0162 61.802 31.0442C60.2265 31.8514 58.7373 32.755 57.3066 33.724C58.7717 32.1796 60.249 30.6444 61.7313 29.1187C61.8572 29.7361 61.9364 30.3614 61.9709 30.9773ZM60.9453 26.7235C59.0475 28.5354 57.0894 30.2945 55.1054 32.0271C56.4896 30.4329 57.8703 28.834 59.2458 27.2336C59.6853 26.7406 60.118 26.2429 60.5385 25.7343C60.7006 26.0407 60.8522 26.3595 60.9884 26.6877C60.9746 26.7001 60.9574 26.7095 60.9436 26.7235H60.9453Z" fill="white"/>
<path d="M39.9615 8.09136C40.8411 5.8925 40.5023 0.353162 36.71 0.589616C36.2514 0.618231 36.0152 0.931494 36.0819 1.31554C36.5252 3.91653 37.1857 6.49041 38.2553 8.95133C38.4744 9.45586 39.395 9.25254 39.1897 8.72391C39.1486 8.61548 39.111 8.50704 39.0716 8.3986C39.3728 8.51909 39.8331 8.41517 39.9632 8.08986L39.9615 8.09136ZM38.8372 7.75551C38.1561 5.769 37.718 3.72526 37.4322 1.66495C40.5177 1.57007 39.1606 5.94822 38.8372 7.75551Z" fill="white"/>
<path d="M54.0353 4.17111C54.4137 4.16259 55.1042 4.68194 55.4164 4.89195C56.14 5.38008 57.127 4.61525 56.4626 4.04056C55.4687 3.18349 53.4284 2.20865 52.6176 3.77379C52.0073 4.95155 52.7327 6.47838 53.418 7.52559C53.6098 7.81932 54.1329 7.61073 54.0527 7.30849C53.826 6.45284 53.6516 5.43826 53.8609 4.56842C53.894 4.42936 53.9429 4.29314 54.0231 4.1782C54.0457 4.14699 54.0266 4.17111 54.0353 4.17111Z" fill="white"/>
<path d="M49.4912 63.9971C48.9541 64.3104 48.5645 64.7081 48.1053 65.1028C47.9279 65.255 47.8948 65.2686 47.6593 65.3906C47.6394 65.4011 47.6295 65.4072 47.6162 65.4147C47.6079 65.4162 47.5997 65.4192 47.5881 65.4222C47.5881 65.4207 47.5881 65.4192 47.5881 65.4177C47.419 64.9356 47.5134 64.321 47.603 63.8103C47.7853 62.7753 46.1673 62.3158 45.8407 63.3689C45.4362 64.6735 45.0516 67.0553 47.0741 67.4515C48.8115 67.7919 50.539 66.0414 50.6683 64.6102C50.7164 64.0769 49.9687 63.7214 49.4946 63.9986L49.4912 63.9971Z" fill="white"/>
</svg>
