<svg width="57" height="70" viewBox="0 0 57 70" fill="none" xmlns="http://www.w3.org/2000/svg">
<path d="M24.1597 6.42911C23.4106 4.64015 22.0168 3.20644 20.1606 2.32868C19.2447 1.89538 18.5478 1.32827 17.5033 1.13552C16.4032 0.931609 15.1692 1.05905 14.0569 1.16738C11.3249 1.43022 8.83438 2.71419 7.50311 4.92052C7.33279 4.96831 7.17985 5.08938 7.09817 5.29966C6.95218 5.67721 6.72798 5.99581 6.68975 6.4084C6.63934 6.94843 6.47076 7.43112 6.30566 7.94725C6.00499 8.89191 5.80339 9.8987 6.19443 10.837C6.35953 11.2321 6.36649 11.796 6.46729 12.2181C6.54549 12.5447 6.64803 12.8569 6.72277 13.1851C6.92089 14.0549 7.51006 14.8052 8.17222 15.4328C11.1563 18.262 16.318 18.4739 19.9712 16.7853C23.8034 15.0139 25.696 10.1042 24.1579 6.42911H24.1597ZM21.6935 12.7629C19.7818 16.2628 14.3524 16.7758 10.9008 14.9788C10.1309 14.579 9.44093 14.0358 8.97516 13.3428C8.58586 12.7661 8.47636 12.0126 8.17917 11.3802C8.06621 11.1413 8.17222 10.8752 8.06794 10.6426C7.97236 10.426 7.86634 10.2109 7.77075 9.99428C7.71514 9.87003 7.67517 9.71391 7.64736 9.54664C7.64736 9.47974 7.6491 9.41283 7.65257 9.34592C7.6769 8.83616 7.69776 8.01735 7.95672 7.55059C8.12182 7.2527 8.22784 6.96436 8.27302 6.64735C8.4277 6.4323 8.55631 6.21565 8.6884 5.97669C8.90216 5.59118 9.215 5.28214 9.52435 4.95238C10.3255 4.09693 11.1007 3.56487 12.2721 3.20644C13.254 2.90536 14.2394 2.79703 15.2666 2.77632C16.4466 2.75083 17.3382 2.68233 18.3723 3.28768C19.21 3.77674 20.0998 4.19729 20.8298 4.82176C21.5614 5.44781 22.0776 6.26344 22.4269 7.1157C23.1968 8.99068 22.6199 11.0616 21.69 12.7629H21.6935Z" fill="white"/>
<path d="M31.0871 37.9644C31.0853 37.0739 31.1983 36.2311 31.0471 35.3422C30.9272 34.6381 30.7673 33.9197 30.7013 33.2044C30.6196 32.3123 30.7099 31.4075 30.7517 30.5154C30.8386 28.6341 30.4475 26.7033 30.1747 24.8411C29.9505 23.3118 29.8305 21.7156 29.3161 20.2436C28.8642 18.9549 28.4993 17.6359 27.2896 16.739C26.6744 16.2834 25.9862 16.0046 25.2771 15.9393C25.3101 15.9027 25.3431 15.866 25.3762 15.831C24.3334 15.6892 23.2194 15.8899 22.1887 16.3439C20.1136 17.2567 17.9134 18.4356 15.5445 18.4547C14.3071 18.4642 12.9984 18.5678 11.7697 18.4021C10.5462 18.2364 9.24618 17.6757 8.299 16.9732C6.6097 15.7195 4.18178 15.8756 2.53072 17.1165C1.79557 17.6677 1.09691 18.598 0.764958 19.4137C0.566831 19.9043 0.283544 20.3599 0.0854172 20.8506C-0.0953302 21.2934 0.0680377 22.0055 0.0610859 22.4754C0.0523961 23.0776 -0.0171222 23.6654 0.0367545 24.2676C0.0836793 24.7965 0.233144 25.3126 0.280068 25.8415C0.379132 26.9375 0.351325 28.0478 0.431271 29.147C0.446912 29.3637 0.472982 29.5755 0.556403 29.7571C0.490361 30.2924 0.387822 30.8197 0.344373 31.3581C0.283544 32.1196 0.479933 32.8603 0.472982 33.6234C0.46603 34.353 0.631136 35.0603 0.624184 35.7819C0.61028 37.1838 0.302662 38.584 0.340897 39.9875C0.373918 41.2061 2.0719 41.4897 3.20331 41.6171C3.1981 42.4503 3.18246 43.2818 3.13205 44.1134C3.00171 46.3038 2.96 48.4751 2.95131 50.6687C2.94262 52.8591 2.92524 55.0495 2.92871 57.2399C2.92871 57.6716 3.0747 58.0857 3.10425 58.5143C3.13901 59.024 3.10425 59.5481 3.10425 60.0595C3.10425 60.9181 3.13032 61.8086 3.34235 62.6497C3.58566 63.6167 3.45705 64.6936 3.45879 65.6844V67.1181C3.46053 67.5212 3.15117 67.8541 3.27457 68.2922C3.50745 69.1254 4.28432 69.2209 5.09942 69.1174C5.99447 69.0027 6.97468 69.0935 7.88363 69.0919C8.02093 69.0919 8.14084 69.068 8.24686 69.0282C8.61009 69.3388 9.3018 69.2401 9.453 68.7287C9.53642 68.4435 9.75019 68.1679 9.86316 67.8764C10.0074 67.5005 10.0769 67.1484 10.2924 66.79C10.7825 65.9728 10.9337 65.0934 11.1979 64.1902C11.8062 62.1129 12.4127 60.0324 13.1531 57.9918C13.784 56.2506 14.7068 54.6098 15.3638 52.8766C15.6888 52.0179 16.1841 51.2421 16.5074 50.3851C16.5578 50.2529 16.6238 50.1191 16.6985 49.9837C16.8202 50.4536 16.9714 50.9188 17.1017 51.3855C17.425 52.5341 17.889 53.6651 18.2471 54.8105C18.9527 57.0726 19.7139 59.3172 20.5794 61.5267C21.0069 62.6163 21.4588 63.7059 21.8551 64.8051C22.0532 65.3531 22.1992 65.9122 22.4025 66.4602C22.5885 66.9604 22.585 67.4638 22.7466 67.9704C23.374 69.9505 26.3929 68.8529 27.9205 68.7478C28.8138 68.6857 29.1962 68.0469 29.144 67.2934C29.1075 66.7549 28.9946 66.2261 28.9581 65.6876C28.9251 65.1795 29.0137 64.6617 28.9025 64.1583C28.6817 63.1468 28.7096 62.1145 28.5253 61.1029C28.4158 60.5024 28.4158 59.9225 28.4141 59.314C28.4124 58.6608 28.2351 58.0204 28.2334 57.3609C28.2299 56.2761 28.183 55.204 28.0995 54.1223C28.0039 52.8654 28.0526 51.6069 27.9553 50.3501C27.8614 49.1457 27.7728 47.9749 27.8023 46.7658C27.8336 45.4691 27.8927 44.1771 27.8076 42.8804C27.7798 42.4519 27.7519 42.0234 27.7259 41.5948C27.8319 41.5757 27.9362 41.5391 28.037 41.4817C28.2142 41.3798 28.4662 41.469 28.6592 41.4021C29.0797 41.2571 29.4916 41.0962 29.8948 40.9114C30.4492 40.6581 30.8507 40.4367 31.0332 39.86C31.2157 39.285 31.0923 38.5601 31.0906 37.9691L31.0871 37.9644ZM29.217 37.0675C29.1771 37.6696 29.1684 38.2686 29.1666 38.8708C29.1666 38.9934 29.1666 39.1161 29.1632 39.2388C29.1475 39.2467 29.1336 39.2531 29.1145 39.2627C28.972 39.3264 28.8277 39.3869 28.6817 39.4475C28.3985 39.5653 28.103 39.5988 27.8093 39.6418C27.7433 39.6259 27.6737 39.6179 27.606 39.6131C27.2966 34.2239 27.0429 28.8316 26.3546 23.4679C26.3216 23.2035 25.941 23.2035 25.9062 23.4679C25.7568 24.634 25.6038 25.7411 25.6316 26.9184C25.6612 28.1928 25.7828 29.4688 25.8454 30.7416C25.9671 33.2188 25.9375 35.6959 26.08 38.1714C26.1443 39.2866 26.0696 40.4033 26.1217 41.52C26.1808 42.7753 26.2538 43.9971 26.2104 45.2572C26.1687 46.4551 26.0974 47.6515 26.1287 48.8494C26.1635 50.1621 26.3216 51.4604 26.3147 52.7794C26.3094 53.8627 26.4398 54.9411 26.4676 56.0244C26.4815 56.558 26.4641 57.0933 26.4624 57.627C26.4606 58.2912 26.631 58.9348 26.6292 59.5975C26.6257 60.6999 26.6987 61.8262 26.8864 62.9158C27.062 63.9417 27.0863 64.9373 27.1471 65.9696C27.1697 66.3503 27.2375 66.7279 27.2827 67.107C27.2618 67.1102 27.2427 67.1118 27.2219 67.115C26.9125 67.1612 26.6188 67.2074 26.3042 67.2233C25.8367 67.2456 25.3883 67.3635 24.9208 67.3842C24.8461 67.3874 24.4915 67.3396 24.5367 67.4527C24.4307 67.2838 24.4707 66.9732 24.4707 66.798C24.4707 66.2659 24.104 65.6351 23.9232 65.1317C23.7338 64.6044 23.6121 64.0612 23.4036 63.5371C22.9413 62.371 22.5155 61.1874 22.0219 60.0324C21.8481 59.6246 21.7821 59.1499 21.6187 58.7293C21.4154 58.2052 21.179 57.6907 20.9809 57.165C20.5985 56.155 20.3465 55.0861 20.0267 54.0586C19.7226 53.0789 19.368 52.1215 19.0448 51.1513C18.7806 50.3644 18.4521 49.4627 18.4139 48.6392C18.3826 47.9828 17.7309 47.7025 17.1904 47.7996C16.7263 47.2262 15.5915 47.3568 15.4333 48.1931C15.4333 48.1788 15.435 48.166 15.4368 48.1501C15.2995 48.319 15.2265 48.5754 15.1379 48.7682C14.9623 49.1489 14.7798 49.5217 14.6252 49.9104C14.2915 50.7563 13.824 51.5512 13.4937 52.405C12.7916 54.2227 11.867 55.9623 11.2118 57.7942C10.4784 59.846 9.87533 61.944 9.34003 64.0468C9.21664 64.5311 9.11758 65.0122 9.02199 65.5028C8.95073 65.866 8.62747 66.1958 8.49886 66.5479C8.38937 66.8473 8.34071 67.1484 8.27467 67.4511C8.1617 67.4049 8.03135 67.3778 7.88189 67.3778L6.10048 67.373C5.83979 67.373 5.57562 67.3619 5.31319 67.373C5.31319 67.3667 5.31667 67.3587 5.3184 67.3523C5.38445 66.9079 5.35316 66.4539 5.35316 66.0062C5.35316 65.0504 5.3549 64.0946 5.35664 63.1388C5.35664 62.449 5.07509 61.7545 5.01079 61.0679C4.93258 60.2315 5.01252 59.3586 5.01426 58.519C5.01426 58.1877 4.93779 57.8532 4.86827 57.5298C4.77095 57.0774 4.84047 56.5612 4.83873 56.1024L4.8283 53.0932C4.82135 51.137 4.8144 49.1792 4.80744 47.223C4.80049 45.4133 4.96212 43.618 4.93779 41.8051C4.91172 39.8807 4.87001 37.9564 4.92736 36.032C4.98472 34.114 5.01252 32.1976 4.94474 30.278C4.90825 29.2697 4.97255 28.282 5.00383 27.2752C5.03338 26.2732 4.82656 25.2648 4.75357 24.2676C4.72402 23.8582 4.08967 23.8582 4.06186 24.2676C3.90371 26.4787 3.58392 28.6707 3.5005 30.8866C3.41708 33.1041 3.34061 35.3215 3.25024 37.5406C3.21721 38.3499 3.21026 39.1607 3.20852 39.9716C2.8366 39.9142 2.46642 39.8202 2.10318 39.731C2.11014 39.7007 2.1084 39.6529 2.09623 39.5844C2.11535 39.4713 2.13099 39.3582 2.14316 39.2435C2.18313 38.8995 2.13621 38.5251 2.13273 38.1778C2.12752 37.6075 2.29436 37.0579 2.28915 36.486C2.28219 35.8504 2.27003 35.2467 2.12925 34.6222C2.00412 34.071 2.09971 33.4625 2.05974 32.9017C2.00586 32.1721 1.79557 31.5509 2.00065 30.8213C2.16054 30.2557 2.00412 29.4608 1.94329 28.8873C1.92418 28.7026 1.88594 28.5034 1.83554 28.3011C1.83728 28.239 1.84075 28.1784 1.84423 28.1227C1.91375 27.2497 2.01455 26.2397 1.87204 25.3747C1.69303 24.2867 1.74343 23.2767 1.77992 22.1807C1.7973 21.6487 1.75733 21.2425 2.02671 20.7534C2.26481 20.3201 2.46294 19.8804 2.74101 19.4662C3.29368 18.6442 3.91935 18.0596 4.95865 17.835C6.21866 17.5626 6.89821 18.1297 7.84713 18.7781C8.65876 19.334 9.75714 19.5905 10.6991 19.9011C11.7992 20.2643 13.0923 20.1592 14.2393 20.1624C14.7816 20.1624 15.3256 20.1656 15.8678 20.1704C16.3179 20.1735 17.0983 20.1417 17.5102 19.9919C18.0003 19.8119 18.5269 19.7562 19.0205 19.5793C19.6009 19.3723 20.1814 19.1636 20.7619 18.9565C21.6361 18.6442 22.6284 18.0564 23.6191 17.7649C23.7286 17.6422 23.8398 17.5212 23.951 17.3985C24.4516 17.3348 24.9643 17.3619 25.2632 17.4351C26.2625 17.6789 27.0185 18.7828 27.2271 19.6542C27.3679 20.2468 27.6042 20.8203 27.7902 21.4018C27.9744 21.9784 27.9814 22.5997 28.0439 23.1939C28.1882 24.5416 28.4437 25.8829 28.6018 27.2306C28.6835 27.9283 28.8486 28.6213 28.8851 29.3206C28.9198 30.0168 28.8608 30.7177 28.8208 31.4107C28.7513 32.6532 28.892 33.8384 29.038 35.0651C29.1215 35.7564 29.2622 36.357 29.2153 37.0659L29.217 37.0675Z" fill="white"/>
<path d="M53.2773 0.721171C52.4813 1.09234 51.7462 1.54157 50.9815 1.95576C50.9867 1.47945 50.9502 0.984019 50.7121 0.617625C50.2846 -0.0371047 49.4851 -0.0418838 48.743 0.031395C47.6585 0.13972 46.5323 0.00749975 45.4426 0.0106858C43.4353 0.0170578 41.4783 0.432835 39.5127 0.673381C39.2555 0.705241 39.0469 0.804008 38.887 0.939415C38.5186 0.805601 38.0389 0.987205 37.9798 1.48423C37.7608 3.29071 38.0268 5.13383 38.1675 6.9419C38.2318 7.77664 38.3726 8.61616 38.4126 9.44931C38.4404 10.0132 38.5203 10.7747 39.2955 10.8926C41.2281 11.1857 43.2302 10.8496 45.1663 10.8209C46.0996 10.8082 47.0433 10.7062 47.9765 10.6568C48.4302 10.6329 48.8594 10.5182 49.3183 10.5166C49.7388 10.5166 50.1751 10.4449 50.5157 10.2108C51.2769 9.68826 51.1727 8.94751 51.1136 8.1733C51.044 7.26051 51.1014 6.34771 51.0128 5.43013C50.9641 4.92674 50.9537 4.42175 50.9537 3.91676C51.3586 3.73516 51.7653 3.55356 52.1581 3.34806C52.8619 2.98326 53.5206 2.57544 54.2506 2.2441C55.3629 1.7407 54.3844 0.201848 53.2773 0.717985V0.721171ZM48.5136 8.74838C47.337 8.92361 46.0943 9.00486 44.9004 9.02875C43.6525 9.05265 42.4151 9.18487 41.1638 9.20239C40.8579 9.20717 40.552 9.21514 40.2461 9.21832C40.2461 9.20558 40.2444 9.19283 40.2426 9.1785C40.2148 8.83918 40.0984 8.51421 40.0689 8.1749C39.9124 6.32222 39.6778 4.46635 39.4467 2.61686C39.4675 2.61686 39.4884 2.61686 39.511 2.61368C41.1672 2.46393 42.7992 2.1071 44.4641 1.96691C45.4374 1.88567 46.4228 1.92549 47.3978 1.94461C47.7784 1.95257 48.1625 1.96532 48.5431 1.94461C48.6665 1.93824 48.7951 1.91753 48.922 1.9016C48.9185 1.98443 48.9133 2.06249 48.9133 2.11984C48.915 2.41136 48.9168 2.70288 48.9168 2.99441C48.3328 3.30027 47.7663 3.62843 47.2327 4.02031C46.3081 4.69893 45.4843 5.42376 44.4624 5.99246C44.4068 6.02114 44.3494 6.04822 44.2938 6.07689C44.266 5.97813 44.2417 5.87777 44.2191 5.77581C44.0887 5.20233 44.0922 4.61132 44.021 4.03146C43.9236 3.23336 42.5437 3.22858 42.648 4.03146C42.5385 4.94744 42.3734 6.67587 43.1642 7.41343C44.0714 8.26251 45.5295 7.29874 46.3498 6.7826C47.2675 6.20593 48.0739 5.53208 48.9741 4.95063C49.028 5.66908 49.1062 6.38594 49.1097 7.10758C49.1114 7.61415 49.0923 8.12073 49.1671 8.62413C49.1705 8.6528 49.1775 8.67829 49.1827 8.70059C48.9585 8.70856 48.736 8.71334 48.5118 8.74679L48.5136 8.74838Z" fill="white"/>
<path d="M54.146 14.7397C53.35 15.1109 52.6148 15.5601 51.8501 15.9743C51.8553 15.498 51.8188 15.0026 51.5807 14.6362C51.1532 13.9814 50.3537 13.9767 49.6116 14.0499C48.5272 14.1583 47.401 14.0261 46.3113 14.0292C44.3039 14.0356 42.347 14.4514 40.3814 14.6919C40.1241 14.7238 39.9156 14.8226 39.7557 14.958C39.3872 14.8242 38.9076 15.0058 38.8485 15.5028C38.6295 17.3093 38.8954 19.1524 39.0362 20.9605C39.1005 21.7952 39.2413 22.6347 39.2812 23.4679C39.309 24.0318 39.389 24.7933 40.1641 24.9111C42.0967 25.2043 44.0988 24.8681 46.0349 24.8395C46.9682 24.8267 47.9119 24.7248 48.8452 24.6754C49.2988 24.6515 49.7281 24.5368 50.1869 24.5352C50.6075 24.5352 51.0437 24.4635 51.3844 24.2293C52.1456 23.7068 52.0413 22.9661 51.9822 22.1919C51.9127 21.2791 51.97 20.3663 51.8814 19.4487C51.8327 18.9453 51.8223 18.4403 51.8223 17.9353C52.2273 17.7537 52.6339 17.5721 53.0267 17.3666C53.7306 17.0018 54.3893 16.594 55.1192 16.2627C56.2315 15.7593 55.253 14.2204 54.146 14.7365V14.7397ZM49.3822 22.7669C48.2056 22.9422 46.963 23.0234 45.769 23.0473C44.5212 23.0712 43.2837 23.2034 42.0324 23.2209C41.7265 23.2257 41.4207 23.2337 41.1148 23.2369C41.1148 23.2241 41.113 23.2114 41.1113 23.1971C41.0835 22.8577 40.967 22.5328 40.9375 22.1935C40.7811 20.3408 40.5465 18.4849 40.3153 16.6354C40.3362 16.6354 40.357 16.6354 40.3796 16.6322C42.0359 16.4825 43.6678 16.1257 45.3328 15.9855C46.306 15.9042 47.2915 15.944 48.2665 15.9632C48.6471 15.9711 49.0312 15.9839 49.4118 15.9632C49.5352 15.9568 49.6638 15.9361 49.7907 15.9202C49.7872 16.003 49.782 16.081 49.782 16.1384C49.7837 16.4299 49.7854 16.7214 49.7854 17.013C49.2015 17.3188 48.6349 17.647 48.1014 18.0389C47.1768 18.7175 46.353 19.4423 45.3311 20.011C45.2754 20.0397 45.2181 20.0668 45.1625 20.0954C45.1347 19.9967 45.1103 19.8963 45.0877 19.7944C44.9574 19.2209 44.9609 18.6299 44.8896 18.05C44.7923 17.2519 43.4124 17.2471 43.5166 18.05C43.4071 18.966 43.242 20.6944 44.0328 21.432C44.94 22.2811 46.3982 21.3173 47.2185 20.8012C48.1361 20.2245 48.9425 19.5506 49.8428 18.9692C49.8967 19.6876 49.9749 20.4045 49.9784 21.1261C49.9801 21.6327 49.961 22.1393 50.0357 22.6427C50.0392 22.6714 50.0461 22.6968 50.0513 22.7191C49.8271 22.7271 49.6047 22.7319 49.3805 22.7653L49.3822 22.7669Z" fill="white"/>
<path d="M55.5366 29.5549C54.7406 29.9261 54.0055 30.3753 53.2408 30.7895C53.246 30.3132 53.2095 29.8178 52.9714 29.4514C52.5438 28.7966 51.7444 28.7919 51.0023 28.8651C49.9178 28.9735 48.7916 28.8412 47.7019 28.8444C45.6946 28.8508 43.7376 29.2666 41.772 29.5071C41.5148 29.539 41.3062 29.6377 41.1463 29.7732C40.7779 29.6393 40.2982 29.8209 40.2391 30.318C40.0201 32.1244 40.286 33.9676 40.4268 35.7756C40.4911 36.6104 40.6319 37.4499 40.6719 38.2831C40.6997 38.847 40.7796 39.6084 41.5547 39.7263C43.4873 40.0194 45.4895 39.6833 47.4256 39.6546C48.3588 39.6419 49.3025 39.5399 50.2358 39.4906C50.6894 39.4667 51.1187 39.352 51.5775 39.3504C51.9981 39.3504 52.4343 39.2787 52.775 39.0445C53.5362 38.522 53.4319 37.7813 53.3728 37.007C53.3033 36.0942 53.3607 35.1814 53.272 34.2639C53.2234 33.7605 53.2129 33.2555 53.2129 32.7505C53.6179 32.5689 54.0246 32.3873 54.4173 32.1818C55.1212 31.817 55.7799 31.4092 56.5098 31.0778C57.6221 30.5744 56.6437 29.0356 55.5366 29.5517V29.5549ZM50.7729 37.5821C49.5963 37.7574 48.3536 37.8386 47.1596 37.8625C45.9118 37.8864 44.6744 38.0186 43.423 38.0361C43.1172 38.0409 42.8113 38.0489 42.5054 38.0521C42.5054 38.0393 42.5037 38.0266 42.5019 38.0122C42.4741 37.6729 42.3577 37.348 42.3281 37.0086C42.1717 35.156 41.9371 33.3001 41.7059 31.4506C41.7268 31.4506 41.7477 31.4506 41.7702 31.4474C43.4265 31.2977 45.0585 30.9408 46.7234 30.8007C47.6967 30.7194 48.6821 30.7592 49.6571 30.7783C50.0377 30.7863 50.4218 30.7991 50.8024 30.7783C50.9258 30.772 51.0544 30.7513 51.1813 30.7353C51.1778 30.8182 51.1726 30.8962 51.1726 30.9536C51.1743 31.2451 51.1761 31.5366 51.1761 31.8281C50.5921 32.134 50.0255 32.4622 49.492 32.8541C48.5674 33.5327 47.7436 34.2575 46.7217 34.8262C46.6661 34.8549 46.6087 34.882 46.5531 34.9106C46.5253 34.8119 46.501 34.7115 46.4784 34.6096C46.348 34.0361 46.3515 33.4451 46.2802 32.8652C46.1829 32.0671 44.803 32.0623 44.9073 32.8652C44.7978 33.7812 44.6327 35.5096 45.4234 36.2472C46.3306 37.0947 47.7888 36.1325 48.6091 35.6163C49.5267 35.0397 50.3332 34.3658 51.2334 33.7844C51.2873 34.5028 51.3655 35.2197 51.369 35.9413C51.3707 36.4479 51.3516 36.9545 51.4263 37.4579C51.4298 37.4865 51.4368 37.512 51.442 37.5343C51.2178 37.5423 50.9953 37.5471 50.7711 37.5805L50.7729 37.5821Z" fill="white"/>
</svg>
