<svg width="96" height="83" viewBox="0 0 96 83" fill="none" xmlns="http://www.w3.org/2000/svg">
<path d="M63.0617 54.5771C63.0511 54.5771 63.0511 54.5924 63.0617 54.5924C63.0723 54.5924 63.0723 54.5771 63.0617 54.5771Z" fill="black"/>
<path d="M66.7887 24.5856C66.1444 23.2887 65.5312 21.9694 64.8168 20.7032C64.0975 19.428 63.1817 18.2925 62.0115 17.3357C60.8119 16.3543 59.4059 15.5911 57.9959 14.8952C55.4973 13.6633 52.9513 12.5742 50.1419 12.1168C47.4426 11.6765 44.7033 11.7251 42.0065 12.1467C37.8458 12.7962 33.7169 14.5454 30.9769 17.5518C30.4125 18.063 29.8857 18.608 29.3972 19.1865C27.6374 21.2735 26.4304 23.6924 25.5399 26.189C24.6543 28.6737 24.2531 31.2308 24.5328 33.8403C25.0759 38.912 27.9766 43.592 32.0647 46.9819C34.1606 48.7198 36.5753 50.0877 39.1824 51.0774C41.9714 52.1366 45.0189 52.2868 47.9898 51.9475C53.7399 51.2912 59.2477 48.6361 63.008 44.5742C66.9036 40.3659 68.922 34.3284 68.1236 28.8486C67.9075 27.3648 67.4655 25.9476 66.7887 24.5849V24.5856ZM66.2129 35.4175C65.5564 38.0546 64.365 40.5826 62.6296 42.7735C60.9986 44.8321 58.8261 46.496 56.4636 47.8086C51.4834 50.5758 44.9382 51.8196 39.4058 49.7528C34.2568 47.8295 29.9648 44.0323 27.5779 39.4465C26.3995 37.1831 25.7666 34.6827 25.7316 32.1764C25.6941 29.537 26.4655 26.9739 27.5094 24.5341C28.5573 22.086 30.0806 19.792 32.1658 17.9719C33.2578 17.0188 34.5145 16.2564 35.8609 15.6404C37.3842 14.943 38.9263 14.2793 40.5451 13.7882C42.3824 13.4017 44.267 13.2186 46.1092 13.2246C48.6748 13.2335 51.2762 13.5916 53.6493 14.5192C55.1066 15.088 56.5346 15.7668 57.916 16.4739C59.295 17.1803 60.6178 17.9861 61.7179 19.0333C62.7927 20.0573 63.4973 21.3752 64.1407 22.6519C64.7956 23.9503 65.5263 25.2546 66.0147 26.6136C67.0317 29.4436 66.9289 32.5389 66.2129 35.416V35.4175Z" fill="black"/>
<path d="M74.4168 27.4475C75.4679 26.7471 76.6414 26.2223 77.7733 25.64C78.3866 25.3246 78.4461 24.4754 77.8288 24.1159C75.936 23.0133 73.9796 21.9938 72.1953 20.7387C72.8771 19.5884 73.6543 18.488 74.1427 17.245C74.3124 16.8129 73.978 16.3495 73.5458 16.2112C72.0869 15.7463 70.482 15.5833 69.1168 14.8799C67.7044 14.1526 68.4073 12.5806 68.44 11.3749C68.4522 10.9205 68.0795 10.6192 67.6285 10.5654C66.6842 10.4518 65.7252 10.4705 64.7759 10.4234C64.2393 10.3965 62.8195 10.4376 62.455 9.94724C61.9657 9.2902 62.0008 8.20933 61.9535 7.45063C61.8956 6.51328 61.8964 5.57069 61.7447 4.64007C61.673 4.2013 61.0426 3.92697 60.643 4.15944C59.7834 4.66025 58.9084 5.13715 58.0456 5.63348C57.6607 5.85549 57.2962 6.10963 56.9447 6.38022C56.5924 5.61704 56.1985 4.86656 55.7475 4.15346C55.4776 3.72739 54.9647 3.57116 54.4876 3.77822C52.9944 4.42629 51.719 5.41073 50.3612 6.2681C49.4967 5.32926 48.6707 4.36425 48.0174 3.27964C47.6594 2.68539 46.7893 2.6525 46.3889 3.21312C45.7487 4.10861 44.8297 4.75444 43.8902 5.35617C43.2378 4.81797 42.6245 4.24465 42.1874 3.5293C41.8335 2.94925 40.9316 2.8745 40.5434 3.46203C39.7515 4.66324 39.0934 6.06628 37.8857 6.95654C37.8343 6.99466 37.765 7.02606 37.6989 7.04848C37.7862 7.01484 37.6052 7.02905 37.4812 6.98345C37.1126 6.84815 36.7587 6.56859 36.439 6.35406C35.8053 5.92949 35.2198 5.44063 34.569 5.03848C33.8946 4.62288 33.2023 5.12968 33.0979 5.77027C32.9014 6.97523 32.6013 8.44778 31.6569 9.3485C30.6596 10.2993 29.1615 9.57649 28.1568 8.99793C27.4546 8.59429 26.4654 9.18032 26.697 9.96967C26.9947 10.9855 27.3967 12.5687 26.5242 13.4418C25.5896 14.3761 23.7719 13.6727 22.7557 13.2534C22.0936 12.9806 21.3343 13.7116 21.5366 14.3253C21.9109 15.4645 22.2036 16.7696 21.9794 17.9581C21.8995 18.3819 21.7568 18.7796 21.4306 18.9492C20.9559 19.1952 20.1258 18.8334 19.6772 18.6293C19.0077 18.3243 17.9198 18.7534 18.2232 19.5973C18.4613 20.2618 19.0044 21.4085 18.6489 22.1126C18.2721 22.8601 16.8727 22.9296 16.1355 23.0231C15.6479 23.0851 15.2556 23.6652 15.4138 24.1084C15.7849 25.1489 16.3345 26.1296 16.6738 27.1791C17.0521 28.3497 16.5449 28.7914 15.3282 29.0725C14.7108 29.2153 14.4181 29.8409 14.6945 30.3746C15.1904 31.3344 15.9072 32.1566 16.4454 33.0902C16.6061 33.3691 16.633 33.5171 16.5351 33.677C16.2318 34.1719 15.4888 34.4738 14.9816 34.728C14.33 35.0546 14.308 35.9187 14.9245 36.2992C16.0638 37.0019 16.9755 37.9908 17.7421 39.0477C17.1728 39.4873 16.6028 39.9275 16.0328 40.367C15.5761 40.7199 15.634 41.5369 16.1796 41.8022C17.5838 42.4854 19.148 42.9698 20.4242 43.8638C21.6923 44.7518 21.3139 46.3186 20.9152 47.5235C20.7406 48.052 21.1908 48.7113 21.8138 48.6911C23.3372 48.6418 24.8508 48.3525 26.3806 48.4803C26.5144 48.4915 26.5397 48.502 26.6628 48.5326C26.6677 48.5334 26.6718 48.5349 26.6758 48.5356C26.8275 48.7023 26.8381 49.2106 26.8593 49.4139C26.9433 50.2062 26.8919 51.0165 27.0583 51.8006C27.1138 52.0623 27.3348 52.3119 27.6047 52.4315C25.9745 56.3984 24.2709 60.3205 22.4703 64.2284C20.5514 68.3919 18.6954 72.5876 17.5015 76.982C17.3025 77.7153 18.4206 78.1713 18.8405 77.4993C20.0573 75.5551 21.9256 73.9794 23.7849 72.5554C25.2079 71.4656 26.7158 70.4624 28.2498 69.5027C27.8224 73.4972 27.4204 77.6705 28.3965 81.5739C28.5719 82.2765 29.7446 82.4387 30.105 81.7787C32.3101 77.737 34.1336 73.5346 36.1903 69.4302C37.1224 67.5704 38.2005 65.7839 39.1709 63.9436C40.0109 62.3507 40.7024 60.5567 42.0659 59.2628C42.3155 59.0259 42.3832 58.7538 42.3326 58.5041C42.9842 58.0295 43.5958 57.5115 44.1944 56.9785C45.3059 57.7222 46.3261 58.5781 47.4001 59.3705C47.8111 59.6739 48.4668 59.4744 48.7171 59.0924C49.0808 58.5392 49.4307 57.9801 49.8189 57.4419C50.0113 57.1758 50.2862 56.746 50.6058 56.447C51.1783 60.3422 53.7153 63.8905 55.4287 67.4134C56.559 69.7374 57.2668 72.2886 58.1639 74.6947C59.1025 77.213 60.1227 79.7089 61.3761 82.1113C61.7716 82.8685 62.9769 82.5987 63.2126 81.8915C64.2279 78.8455 63.8675 75.6612 63.9637 72.521C67.8202 74.0751 71.6726 75.641 75.3122 77.5972C75.9507 77.9403 77.0068 77.3588 76.6757 76.636C74.6394 72.1891 71.7338 68.1497 69.5857 63.7567C68.506 61.5486 67.7354 59.2262 66.6108 57.0346C66.1093 56.0576 65.3345 55.1778 64.7107 54.2629C64.1007 53.3681 63.5535 52.43 63.2151 51.4217C64.4416 51.1817 65.7977 51.5502 67.0398 51.4508C67.6603 51.4007 68.1537 50.9679 68.0102 50.3408C67.7957 49.4027 67.7394 48.4452 67.5984 47.4981C68.8665 47.2013 70.1859 47.1288 71.4916 47.0354C72.0037 46.9988 72.506 46.6916 72.4963 46.1496C72.471 44.8176 72.1016 43.4617 72.2019 42.1334C72.2239 41.8403 72.254 41.8157 72.6129 41.6699C73.3199 41.3814 74.3727 41.5406 75.1116 41.5877C75.7901 41.6311 76.1611 41.0346 76.0861 40.4724C75.8398 38.6246 74.8318 36.9211 74.7584 35.0487C74.7381 34.5277 74.6647 33.9087 75.185 33.6561C75.9841 33.2674 76.8714 33.0544 77.6739 32.6597C78.2463 32.3779 78.3336 31.6909 77.9324 31.2402C76.7882 29.9538 75.5307 28.7563 74.4127 27.4504L74.4168 27.4475ZM37.6891 62.646C36.7285 64.5476 35.6121 66.3797 34.6555 68.285C32.9601 71.6629 31.4449 75.1148 29.7503 78.492C29.4004 74.987 29.9297 71.3422 30.1776 67.8896C30.2192 67.3065 29.3898 66.8521 28.8581 67.1952C25.8587 69.1304 22.5429 71.1374 20.0173 73.6983C21.0562 70.6389 22.3349 67.6474 23.643 64.6784C25.4077 60.6718 27.4131 56.6429 28.558 52.4353C29.8383 52.2275 31.6031 51.6982 32.2237 52.9211C32.4773 53.4212 32.4243 54.0551 32.6053 54.582C32.8581 55.3191 33.4208 55.8154 34.2127 56.0262C34.9947 56.2347 35.7809 56.1181 36.5148 55.8438C37.0164 55.6562 37.429 55.2652 37.9615 55.1591C38.5617 55.0395 38.985 56.0008 39.1864 56.3588C39.5656 57.0323 39.86 57.7469 40.2523 58.4144C39.1277 59.6627 38.4264 61.1854 37.6891 62.6452V62.646ZM64.7963 56.8581C66.1933 58.9765 66.853 61.5285 67.8577 63.8165C69.5303 67.6265 71.905 71.1367 73.8141 74.8487C70.4869 73.1998 67.0096 71.8199 63.5559 70.4034C62.8538 70.1156 62.1476 70.4587 62.0823 71.1785C61.8605 73.6266 62.1092 76.1277 61.8564 78.5734C60.1896 74.8375 58.9598 70.9431 57.4315 67.1578C56.0167 63.6536 53.2847 60.3826 52.5981 56.6399C52.7 56.6885 52.7897 56.7311 52.8599 56.7625C53.5318 57.06 54.2054 57.4128 54.9231 57.6019C55.4328 57.7364 55.9482 57.4771 56.1088 57.0054C56.4179 56.0957 56.8615 54.7293 57.8328 54.5125C59.0055 54.2509 60.6283 54.9692 61.7504 55.2966C62.3955 55.485 62.9011 55.029 62.9843 54.4639C63.003 54.3376 63.0128 54.2105 63.0193 54.0835C63.5437 55.0395 64.1977 55.9499 64.7963 56.8581ZM74.1566 32.0946C73.3126 32.5042 72.9929 33.248 72.8551 34.0851C72.5338 36.0256 73.4528 37.8465 73.9503 39.704C72.5003 39.6973 71.0145 39.9529 70.4053 41.3268C70.1501 41.9031 70.2308 42.62 70.2928 43.2254C70.3629 43.9079 70.4494 44.5859 70.5007 45.2676C69.0687 45.3685 67.6261 45.4971 66.2756 45.9545C65.7717 46.125 65.4259 46.5136 65.549 47.0474C65.7456 47.898 65.8116 48.7643 65.929 49.6247C64.6544 49.5529 63.304 49.3407 62.1688 49.819C60.8754 50.364 61.0067 51.8918 61.0728 53.1969C59.8356 52.8277 58.5145 52.504 57.2872 52.7798C55.8609 53.1013 55.1066 54.3428 54.6091 55.5747C53.3108 54.9984 51.9033 54.0446 50.5569 54.4139C49.2431 54.7734 48.3616 56.0972 47.6366 57.2633C46.6458 56.4994 45.6721 55.7182 44.5932 55.0627C44.2409 54.8489 43.7393 54.884 43.4368 55.1561C42.8162 55.7152 42.194 56.2714 41.5359 56.7879C40.9626 55.5837 40.4186 54.2255 39.1742 53.6514C38.4084 53.2979 37.6777 53.3083 36.8997 53.5886C36.2792 53.8121 35.8021 54.3167 35.1032 54.3309C34.3595 54.3466 34.3839 53.9429 34.2861 53.3569C34.1605 52.6087 33.9289 51.9419 33.4045 51.3499C32.1813 49.967 30.4492 50.414 28.8361 50.6211C28.7407 49.1568 28.9079 47.3404 27.2067 46.7992C25.9394 46.3963 24.4707 46.625 23.0934 46.779C23.3511 45.3722 23.2026 43.946 22.0577 42.8293C21.0995 41.8942 19.7588 41.3634 18.4736 40.8305C18.8732 40.5225 19.2719 40.2146 19.6715 39.9058C19.9839 39.6652 20.0874 39.1486 19.8689 38.819C19.0974 37.6559 18.2093 36.5384 17.1231 35.6227C17.9843 35.0262 18.6244 34.2533 18.4882 33.1246C18.4189 32.5513 18.012 31.9997 17.6817 31.531C17.4289 31.1722 17.1769 30.8171 16.9404 30.4524C17.9875 29.9784 18.7582 29.1898 18.7565 27.9385C18.7549 26.7777 18.1661 25.6879 17.6744 24.6122C18.7215 24.388 19.7302 23.9784 20.2946 23.0814C20.7374 22.3787 20.7333 21.5445 20.5678 20.7335C21.8448 20.8875 23.0085 20.4913 23.652 19.0995C24.1372 18.0493 24.0907 16.7374 23.8501 15.5198C25.2031 15.8173 26.6106 15.759 27.7409 14.8814C28.8312 14.0353 29.0587 12.6644 28.9405 11.3465C30.2298 11.742 31.568 11.7285 32.766 10.8674C33.8718 10.0721 34.4076 8.73182 34.7232 7.41026C35.8518 8.27137 37.1485 9.20573 38.4443 8.69894C39.8209 8.16 40.6918 6.8205 41.451 5.56023C41.9591 6.09992 42.534 6.58055 43.135 7.0567C43.436 7.29515 43.8959 7.48576 44.271 7.24881C45.2717 6.61643 46.269 5.98256 47.0992 5.17976C47.8323 6.1657 48.6715 7.07614 49.5163 7.98583C49.774 8.2639 50.2862 8.37079 50.6278 8.17345C51.9677 7.40055 53.1934 6.45049 54.561 5.72169C54.9802 6.45796 55.3496 7.22339 55.675 7.99555C56.0729 8.93738 57.4348 8.37004 57.3777 7.49324C57.8303 7.2817 58.2837 7.07464 58.72 6.83619C59.2558 6.54318 59.7973 6.26063 60.338 5.97658C60.3665 6.64932 60.3592 7.32729 60.4065 7.99555C60.4717 8.92841 60.5329 10.1491 61.2228 10.901C61.9249 11.6665 63.105 11.8092 64.1064 11.9131C64.9741 12.0036 65.8491 11.9961 66.7193 12.0492C66.5774 13.5001 66.3237 14.8665 67.7664 15.9458C68.9847 16.857 70.5937 17.1336 72.0918 17.5208C71.5495 18.5456 70.8277 19.4904 70.2724 20.5078C70.0253 20.96 70.1558 21.3629 70.5643 21.6791C72.0893 22.8594 73.7733 23.8244 75.4533 24.7931C74.3939 25.3238 73.3558 25.8837 72.4269 26.6147C71.9923 26.9563 72.0795 27.5005 72.3739 27.8862C73.3574 29.1741 74.5171 30.323 75.6343 31.5071C75.1344 31.6894 74.6312 31.8644 74.155 32.0953L74.1566 32.0946Z" fill="black"/>
<path d="M59.6318 23.7002C59.3089 23.3459 58.99 22.9894 58.7413 22.5842C58.473 22.1477 57.8842 22.2396 57.5963 22.5842C53.5849 27.3853 47.2484 30.0098 43.2525 34.781C42.4753 33.9303 42.0113 32.8196 41.5661 31.8127C40.9732 30.4702 40.4317 29.0874 39.5542 27.8727C39.3854 27.6387 39.0861 27.564 38.8129 27.6948C38.1369 28.0177 37.4918 28.372 36.8737 28.7697C36.5923 28.677 36.2417 28.7517 36.0786 29.0186C35.6708 29.6891 36.1503 30.4119 36.479 31.0189C37.0082 31.9973 37.6256 32.9317 38.1899 33.893C39.7353 36.5226 40.6772 39.4438 42.0374 42.1557C42.3408 42.7604 43.3023 42.6543 43.6366 42.1557C48.1055 35.4978 56.2964 31.7275 60.6022 24.965C61.0475 24.2661 60.2989 23.6195 59.6302 23.6995L59.6318 23.7002ZM50.7453 32.4331C47.9824 34.7713 45.1754 37.1498 42.9948 39.9715C41.9868 37.8091 41.111 35.586 39.953 33.4901C39.4735 32.6215 38.9124 31.788 38.3611 30.9561C38.101 30.5637 37.8466 30.1675 37.615 29.7601C37.5734 29.6861 37.5375 29.6046 37.5 29.5239C37.9461 29.2533 38.4068 29.0074 38.8806 28.7779C40.3607 31.1796 40.7563 34.1112 42.8399 36.1945C43.1628 36.5174 43.6749 36.3814 43.9212 36.0667C47.7549 31.1744 53.8165 28.3728 58.097 23.902C58.2846 24.1315 58.4836 24.3535 58.6817 24.577C56.6096 27.6073 53.5865 30.0277 50.7445 32.4331H50.7453Z" fill="black"/>
<path d="M11.519 21.3956C10.874 21.3671 10.1604 21.3387 9.46397 21.3956C8.47804 21.3283 7.53532 21.0824 7.02237 20.299C6.68475 19.784 6.60484 19.1187 6.60239 18.4699C6.61625 18.3144 6.6293 18.1604 6.64398 18.0109C6.73939 17.0429 6.77772 16.0697 6.81523 15.0972C6.83236 14.8259 6.84459 14.5538 6.84704 14.2817C6.85112 13.8257 6.10004 13.8302 6.07884 14.2817C6.06416 14.5964 6.05356 14.9118 6.04459 15.2273C5.99484 16.0293 5.90595 16.8306 5.87823 17.6334C5.86436 18.0476 5.85539 18.4893 5.88883 18.9273C5.84234 19.4603 5.76243 19.9888 5.59933 20.4888C5.37017 21.193 4.82215 21.5024 4.17057 21.6385C3.8509 21.6048 3.5353 21.5929 3.25314 21.5847C2.27454 21.557 1.27392 21.6557 0.312448 21.8224C-0.233936 21.9166 -0.00396501 22.691 0.542419 22.5885C1.36852 22.4338 2.21174 22.3523 3.05497 22.3389C3.79136 22.3269 4.86701 22.309 5.42236 22.8375C6.09678 23.4781 5.8399 24.7787 5.75101 25.5598C5.63439 26.5831 5.42073 27.6632 5.87007 28.6469C6.04377 29.0274 6.71819 28.8846 6.56569 28.4713C6.22481 27.5496 6.3031 26.5607 6.46865 25.6144C6.55183 25.1397 6.67252 24.6718 6.79892 24.2054C6.90575 23.8099 6.98975 23.4123 7.22298 23.0602C7.67558 22.3778 8.56122 22.1498 9.4811 22.0892C10.1857 22.1378 10.8984 22.1161 11.519 22.1176C12.0295 22.1191 12.023 21.418 11.519 21.3963V21.3956ZM6.63664 22.6468C6.5396 22.7724 6.46538 22.907 6.40341 23.0475C6.30147 22.7709 6.14897 22.5138 5.92389 22.2918C5.72165 22.0922 5.46314 21.9509 5.17853 21.8493C5.51207 21.6699 5.79831 21.4083 6.01115 21.0285C6.11472 20.8439 6.19709 20.6488 6.26559 20.447C6.31207 20.5404 6.36263 20.6324 6.41972 20.7213C6.75407 21.2363 7.23848 21.5622 7.79791 21.7693C7.34775 21.9629 6.94816 22.2432 6.63582 22.6468H6.63664Z" fill="black"/>
<path d="M91.438 7.45415C90.7929 7.42574 90.0794 7.39734 89.3829 7.45415C88.397 7.38687 87.4543 7.14095 86.9413 6.35758C86.6037 5.84256 86.5238 5.1773 86.5213 4.52848C86.5352 4.373 86.5482 4.21902 86.5629 4.06952C86.6583 3.10152 86.6967 2.12829 86.7342 1.15581C86.7513 0.884468 86.7635 0.612382 86.766 0.340296C86.7701 -0.115672 86.019 -0.111187 85.9978 0.340296C85.9831 0.654989 85.9725 0.970429 85.9635 1.28587C85.9138 2.08792 85.8249 2.88923 85.7972 3.69204C85.7833 4.10614 85.7743 4.54791 85.8078 4.98594C85.7613 5.5189 85.6814 6.04737 85.5183 6.54819C85.2891 7.25233 84.7411 7.56179 84.0895 7.69783C83.7698 7.66419 83.4542 7.65223 83.1721 7.64401C82.1935 7.61635 81.1929 7.71502 80.2314 7.88171C79.685 7.97589 79.915 8.75029 80.4614 8.64789C81.2875 8.49316 82.1307 8.41168 82.9739 8.39822C83.7103 8.38627 84.786 8.36833 85.3413 8.8968C86.0157 9.5374 85.7588 10.838 85.67 11.6192C85.5533 12.6425 85.3397 13.7226 85.789 14.7063C85.9627 15.0868 86.6371 14.944 86.4846 14.5306C86.1438 13.609 86.222 12.62 86.3876 11.6737C86.4708 11.1991 86.5915 10.7311 86.7179 10.2647C86.8247 9.86928 86.9087 9.47162 87.1419 9.11955C87.5945 8.43709 88.4802 8.20911 89.4 8.14856C90.1046 8.1964 90.8174 8.17547 91.438 8.17697C91.9485 8.17846 91.9419 7.47732 91.438 7.45564V7.45415ZM86.5556 8.70544C86.4585 8.83102 86.3843 8.96557 86.3224 9.1061C86.2204 8.82953 86.0679 8.57239 85.8428 8.35039C85.6406 8.15081 85.3821 8.00953 85.0975 7.90787C85.431 7.72848 85.7172 7.46685 85.9301 7.08713C86.0337 6.9025 86.116 6.70741 86.1845 6.50558C86.231 6.59902 86.2816 6.69096 86.3387 6.77991C86.673 7.29493 87.1574 7.62084 87.7169 7.82789C87.2667 8.02149 86.8671 8.3018 86.5548 8.70544H86.5556Z" fill="black"/>
<path d="M95.0701 30.0357C94.4144 30.0163 93.6886 29.9976 92.9816 30.0357C91.9793 29.9901 91.0211 29.8227 90.5 29.2905C90.1575 28.9407 90.076 28.4884 90.0727 28.0474C90.0866 27.942 90.1004 27.8374 90.1151 27.7357C90.2122 27.0779 90.2513 26.4164 90.2888 25.7556C90.3068 25.571 90.319 25.3863 90.3214 25.2017C90.3255 24.8923 89.5622 24.8945 89.5402 25.2017C89.5255 25.4155 89.5149 25.63 89.5051 25.8438C89.4546 26.3887 89.364 26.9329 89.3363 27.4786C89.3216 27.7604 89.3135 28.0601 89.3477 28.3576C89.3004 28.7194 89.2197 29.0789 89.0541 29.419C88.8209 29.8974 88.2639 30.1075 87.6017 30.2002C87.2772 30.177 86.9559 30.1688 86.6688 30.1635C85.6739 30.1449 84.657 30.2121 83.68 30.325C83.1247 30.3893 83.3579 30.9155 83.9141 30.8453C84.754 30.7399 85.6111 30.6853 86.4674 30.6756C87.2152 30.6674 88.3088 30.6554 88.8739 31.0142C89.5598 31.45 89.2988 32.3335 89.2075 32.8642C89.0884 33.5594 88.8715 34.2934 89.329 34.9617C89.5059 35.2203 90.191 35.1231 90.036 34.8421C89.6894 34.2157 89.7693 33.5437 89.9373 32.9008C90.0213 32.5779 90.1453 32.2603 90.2725 31.9433C90.381 31.675 90.4666 31.4044 90.7031 31.1652C91.163 30.701 92.0633 30.5463 92.9987 30.5051C93.7147 30.538 94.4397 30.5231 95.0709 30.5246C95.5896 30.5253 95.5838 30.0492 95.0709 30.0342L95.0701 30.0357ZM90.107 30.8864C90.0083 30.9716 89.9324 31.0635 89.8705 31.1585C89.7669 30.9701 89.6111 30.7959 89.3836 30.6449C89.1781 30.5089 88.9155 30.4132 88.626 30.3444C88.9653 30.2226 89.2564 30.0447 89.4725 29.7868C89.5777 29.6612 89.6617 29.5289 89.731 29.3914C89.7783 29.4549 89.8297 29.5177 89.8876 29.5775C90.2276 29.9273 90.7202 30.1493 91.2886 30.2891C90.8311 30.4207 90.4242 30.6113 90.107 30.8856V30.8864Z" fill="black"/>
</svg>
