<svg width="74" height="71" viewBox="0 0 74 71" fill="none" xmlns="http://www.w3.org/2000/svg">
<path d="M8.52206 23.2464C4.37086 28.2685 7.07847 34.3527 12.877 36.8899C18.7067 39.4414 26.8864 38.2163 30.3987 32.8808C33.747 27.7953 29.2038 21.6383 25.17 18.2321C23.514 16.8345 21.4333 15.2913 19.2316 14.7373C17.3736 14.2704 16.5413 16.222 17.548 17.3553C14.0581 17.9441 10.2299 21.1824 8.52206 23.248V23.2464ZM14.1324 20.8089C15.6554 19.6709 17.9279 18.46 19.8619 18.946C21.1639 19.7722 22.4452 20.5921 23.6211 21.6509C25.4135 23.2638 26.9434 25.2027 27.7654 27.3933C29.7719 32.7336 23.483 35.8469 18.4511 35.6601C13.1343 35.4639 7.71738 31.6873 9.41999 26.4325C10.1642 24.1375 12.1587 22.2777 14.1307 20.8073L14.1324 20.8089Z" fill="white"/>
<path d="M51.7276 14.7372C49.3084 15.2912 47.0221 16.8344 45.2021 18.232C40.7694 21.6397 35.7755 27.7952 39.4553 32.8806C43.3147 38.2162 52.3044 39.4413 58.7107 36.8898C65.0826 34.3526 68.0596 28.2668 63.4974 23.2462C61.6204 21.1807 57.4139 17.9439 53.5787 17.3536C54.6839 16.2203 53.7704 14.2687 51.7293 14.7356L51.7276 14.7372ZM57.331 20.8088C59.4964 22.2792 61.6895 24.1389 62.5079 26.434C64.3798 31.6888 58.4275 35.4637 52.5841 35.6616C47.0549 35.8483 40.1443 32.7334 42.3494 27.3947C43.2525 25.2057 44.9344 23.2652 46.9047 21.6524C48.1981 20.5935 49.6071 19.772 51.0369 18.9474C53.1626 18.4615 55.6578 19.6723 57.3328 20.8104L57.331 20.8088Z" fill="white"/>
<path d="M70.9367 67.6528C71.6429 67.618 72.3492 67.5832 73.0554 67.5531C72.9743 67.2745 72.9052 66.9928 72.8292 66.7142C73.2091 66.0922 73.0485 65.1599 72.3457 64.7421C71.6205 61.4515 71.2458 58.1071 71.0921 54.7627C70.8624 49.7579 70.89 44.7342 69.9455 39.7753C69.8609 39.3274 69.2461 38.8051 68.7039 38.7402C63.4182 38.1102 58.1032 38.1039 52.7778 38.2875C50.1893 38.3761 47.6026 38.4948 45.0141 38.5724C42.4567 38.6484 39.6887 38.8573 37.1469 38.5692C36.1626 38.4584 35.4753 38.7829 35.0885 39.2657C35.0039 39.2546 34.9193 39.2593 34.8416 39.2878C34.7173 39.3337 34.6033 39.3923 34.4963 39.4556C34.1768 38.8731 33.512 38.4442 32.5018 38.5708C30.1879 38.8589 27.6703 38.65 25.3425 38.574C22.9872 38.4964 20.6319 38.3793 18.2783 38.2891C13.4312 38.1055 8.59616 38.1118 3.78533 38.7418C3.29146 38.8067 2.73371 39.329 2.65601 39.7769C1.79607 44.7373 1.82024 49.7595 1.6113 54.7642C1.47834 57.944 1.16751 61.1223 0.570046 64.253C-0.148298 64.4762 -0.243271 65.6095 0.606308 65.7361C3.27247 66.1334 6.10267 65.9592 8.79819 65.9561C11.896 65.9513 14.9939 66.0115 18.0918 66.0115C19.9671 66.0115 19.9671 63.3461 18.0918 63.3461C15.2132 63.3461 12.3381 63.3983 9.46128 63.4775C7.44266 63.5344 5.29454 63.5313 3.22757 63.7703C3.88375 61.309 4.15313 58.7307 4.38797 56.2362C4.8473 51.3407 4.80586 46.3771 5.60881 41.5116C9.82218 41.1175 14.0442 41.1603 18.2783 41.3296C20.6336 41.4246 22.9872 41.5528 25.3425 41.6477C27.8809 41.7506 30.4538 41.6604 32.9836 41.8314C33.0492 41.8361 33.1131 41.8361 33.1753 41.8345C32.968 43.2337 33.1908 44.8434 33.3497 45.8215C33.6018 47.3632 36.1488 46.7063 35.9001 45.1773C35.7447 44.2261 35.7706 43.2527 35.7654 42.2951C35.7654 42.1115 35.7775 41.9263 35.7913 41.7427C36.0279 41.8155 36.3025 41.8519 36.6167 41.8314C39.3969 41.6604 42.2236 41.749 45.0141 41.6477C47.6026 41.5528 50.1893 41.4246 52.7778 41.3296C57.4297 41.1603 62.0713 41.1159 66.7008 41.5116C67.5832 46.3755 67.5366 51.3407 68.0426 56.2362C68.324 58.9713 68.6487 61.8076 69.5345 64.4778C66.371 64.4002 63.2076 64.3274 60.0441 64.2878C58.0876 64.2625 56.1174 64.2277 54.1626 64.31C52.6068 64.3749 50.7194 64.1881 49.3535 64.9653C49.079 65.1204 49.0807 65.4781 49.3535 65.6348C50.716 66.4151 52.6068 66.2505 54.1626 66.3629C56.1174 66.5053 58.0842 66.5639 60.0441 66.6588C63.6064 66.8298 67.1653 67.0435 70.7243 67.2635C70.7951 67.3948 70.8641 67.5278 70.9384 67.6576L70.9367 67.6528Z" fill="white"/>
<path d="M42.2651 47.0403C38.5007 47.1527 35.7344 50.0317 34.4755 53.3429C33.1166 50.0317 30.1292 47.1511 26.0661 47.0403C20.8857 46.8978 18.4181 52.5721 18.3663 56.518C18.3163 60.2882 21.345 62.5579 24.7365 64.0694C26.3303 64.7785 27.9915 65.3578 29.5248 66.1793C30.1586 66.518 30.6991 66.9153 31.1791 67.4265C31.1877 67.436 31.1946 67.4471 31.2033 67.4566C32.3343 68.2606 33.2409 69.3068 33.9402 70.4828C34.0266 70.5493 34.1164 70.6142 34.2096 70.6759C34.5083 70.8738 34.8313 70.839 35.092 70.6886C35.6687 69.5031 36.4303 68.4141 37.418 67.5753C37.4525 67.5246 37.4871 67.474 37.5285 67.4265C37.9723 66.9168 38.4731 66.5196 39.0602 66.1793C40.4796 65.3578 42.0199 64.7801 43.4963 64.0694C46.6373 62.5594 49.4433 60.2897 49.3967 56.518C49.3484 52.5721 47.0638 46.8963 42.2651 47.0403ZM46.1624 59.0773C44.5824 61.4088 41.3602 62.0941 38.9151 63.1593C37.582 63.7402 35.3338 65.0001 34.4755 66.5765C33.55 65.0001 31.1204 63.7402 29.682 63.1593C27.0417 62.0941 23.5622 61.4072 21.8579 59.0773C19.879 56.3724 21.5661 50.6569 25.0179 49.6028C28.7771 48.4553 32.4569 52.7241 33.7537 55.3705C33.9022 55.6744 34.2044 55.7345 34.4755 55.6522C34.7259 55.7345 35.0057 55.6728 35.1438 55.3705C36.3457 52.7241 39.7543 48.4553 43.2355 49.6028C46.4318 50.6569 47.9946 56.3724 46.1624 59.0773Z" fill="white"/>
<path d="M29.5179 2.39063C29.8131 3.06668 30.9466 4.66807 29.9235 5.21022C29.5476 5.40945 29.1357 4.90979 28.9276 4.68274C28.7926 4.53519 28.6699 4.3637 28.5612 4.18252C28.4198 4.88775 28.5747 5.75152 28.7428 6.28835C28.867 6.68371 28.206 6.88724 28.0453 6.50664C27.6929 5.67204 27.4189 4.83485 27.5143 3.93522C27.5867 3.24794 27.8369 2.33981 28.4975 2.03821C28.8515 1.87666 29.353 2.01319 29.5181 2.39181L29.5179 2.39063Z" fill="white"/>
<path d="M38.828 0.613966C39.6697 1.48638 39.0658 3.23123 38.9948 4.26756C38.8806 5.95252 38.8227 7.6367 38.8586 9.31805C38.8684 9.73714 37.9966 9.78382 37.937 9.37664C37.7158 7.84408 37.5788 6.30258 37.4831 4.7562C37.4348 3.9842 37.4017 3.21069 37.3713 2.43671C37.3489 1.88733 36.9988 1.4523 37.2235 0.890408C37.3512 0.571187 37.6401 0.419001 37.9499 0.389013C38.2504 0.313869 38.5801 0.360589 38.8253 0.614436L38.828 0.613966Z" fill="white"/>
</svg>
