<svg width="90" height="67" viewBox="0 0 90 67" fill="none" xmlns="http://www.w3.org/2000/svg">
<path d="M7.91929 39.6107C8.17953 39.8157 8.57416 39.9344 8.91993 39.8683C9.21071 40.7889 9.95967 41.6657 10.5681 42.397C10.6891 42.5426 10.8369 42.6356 10.9933 42.686C9.1875 43.8562 7.21432 45.33 6.85389 47.3212C6.67062 48.3325 7.23997 49.5016 8.22717 49.9921C8.58638 50.1702 8.94314 50.2105 9.28646 50.1579C8.94192 51.2106 8.87717 52.3909 8.95536 53.3877C9.0751 54.9219 10.0464 56.2423 11.8803 56.0631C12.6207 55.9903 13.2732 55.6767 13.8608 55.2456C13.7362 55.8951 13.8278 56.595 14.2286 57.3521C14.9971 58.8035 16.8066 59.7027 18.5122 59.4586C19.1646 59.3645 19.7718 59.1114 20.3473 58.7766C20.1591 59.5426 20.1726 60.368 20.4475 61.2493C21.1024 63.3491 23.3492 63.9684 25.4922 63.7803C25.9834 63.7366 26.4526 63.638 26.9071 63.5025C27.3616 64.4567 28.0103 65.1757 29 65.7401C29.7929 66.1925 31.033 66.3728 32.0056 66.1298C32.184 66.2004 32.3941 66.2227 32.6299 66.1724C35.0051 65.6673 36.9404 64.4544 37.7614 62.4845C41.0065 63.8374 46.3628 63.1632 47.5198 60.0947C49.2682 61.1306 51.5786 61.5237 53.5505 61.4587C55.6435 61.3904 57.4566 60.4139 57.8525 58.8371C60.07 59.8651 62.6736 60.256 64.9926 59.3556C66.4832 58.7777 67.5522 57.3756 67.8015 55.9421C67.9505 55.0854 67.8149 54.2354 67.5266 53.4179C67.6939 53.4291 67.8735 53.4045 68.0593 53.3238C70.2304 52.3764 72.2915 51.1098 74.3453 49.9675C75.346 49.4109 76.365 48.8834 77.3693 48.3347C77.803 48.0973 78.376 47.8643 78.8293 47.553C78.844 47.5799 78.8598 47.6056 78.8745 47.6325C79.0517 47.9483 79.599 48.1029 79.9228 47.8845C82.6449 46.0546 85.317 44.0309 88.5926 43.1026C88.9652 42.9973 89.2353 42.6288 89.1094 42.2682C87.5602 37.8223 83.3414 34.6787 80.8281 30.7266C79.9778 29.3895 79.0541 28.0893 78.1524 26.7801C77.6967 26.1194 77.2288 25.4676 76.7657 24.8113C76.6618 24.6646 76.3931 24.4183 76.2049 24.2436C75.6685 22.3465 73.71 20.7383 72.5799 19.1492C72.4051 18.9039 72.1156 18.8759 71.8871 18.97C71.5743 18.6922 71.1027 18.5534 70.6055 18.7617C68.5321 19.6274 66.6713 20.8469 64.725 21.9231C59.095 20.1817 52.0734 18.2174 46.3041 20.3721C44.9504 20.8783 43.8386 21.6252 42.8953 22.5256C42.7817 22.4573 42.64 22.4069 42.4677 22.3845C39.9728 22.0586 37.4804 21.9523 34.9623 22.0082C33.7405 22.0351 32.5199 22.0788 31.2994 22.109C30.5981 22.127 29.8846 22.109 29.1747 22.1191C30.135 21.4584 31.1063 20.8077 32.0923 20.1727C32.5346 19.8883 32.1571 19.2802 31.6671 19.5064C31.38 19.6386 31.0953 19.7741 30.8119 19.9118C30.7386 19.7035 30.5736 19.5165 30.2914 19.3911C28.9633 18.7975 27.8173 17.9699 26.7617 17.0303C25.6645 16.0538 24.3816 14.7077 24.1837 13.2563C24.1067 12.6919 23.4299 12.1062 22.7933 12.525C14.7466 17.8086 7.41347 23.8919 0.290455 30.1745C-0.0663069 30.4892 -0.126174 31.1522 0.290455 31.4579C3.3889 33.7279 4.92835 37.25 7.92051 39.6096L7.91929 39.6107ZM9.68721 49.2317C9.14474 49.3639 8.60593 49.2866 8.24672 48.7379C7.62239 47.7871 8.2736 46.8105 8.95536 46.0938C10.0195 44.9761 11.4661 44.1665 12.8089 43.3601C13.9231 42.6927 15.272 41.9099 16.6526 41.9603C17.4236 41.9883 17.751 43.0018 17.4944 43.5483C17.0937 44.4028 16.1346 44.9033 15.5469 45.6402C14.8761 45.8508 14.2176 46.096 13.5737 46.3614C12.325 46.8766 11.0434 47.5452 10.1723 48.5363C9.98533 48.7479 9.82527 48.9831 9.68599 49.2317H9.68721ZM14.7161 53.531C13.0899 54.9096 10.7954 56.3106 10.259 53.9465C9.89125 52.3282 10.474 50.019 11.9866 49.0178C13.421 48.067 15.1046 47.4522 16.7992 47.0177C17.9819 46.7142 19.8647 46.1957 21.0498 46.7467C21.6045 47.0043 20.8079 48.1902 21.0498 48.7569C20.3461 49.2273 19.6839 49.7088 19.0803 50.1254C17.7314 51.0572 15.8291 52.1614 14.7161 53.5321V53.531ZM21.2441 56.9545C20.7639 57.2379 20.2825 57.5212 19.7877 57.7821C18.0467 58.7004 16.5536 58.2379 15.5383 56.6488C14.1614 54.4907 18.5146 52.4066 19.9392 51.4715C21.8354 50.2273 23.8367 48.7121 26.1667 48.2541C27.2198 48.0469 28.3854 48.6505 28.7739 49.5565C29.259 50.6865 28.394 51.5947 27.6401 52.391C27.6084 52.4245 27.5839 52.4604 27.5619 52.4962C26.0042 53.3283 24.4782 54.2836 23.056 55.2691C22.3351 55.7685 21.7194 56.333 21.2441 56.9556V56.9545ZM23.4213 62.0041C21.1231 61.1026 22.1262 58.3566 23.4641 57.1684C24.7775 56.0026 26.5369 55.0955 28.0873 54.2052C30.0238 53.0931 34.2928 50.6484 36.4651 52.4805C37.8005 53.6072 37.7296 55.7865 36.6838 57.0127C35.6306 58.2469 34.096 59.1182 32.6006 59.9122C32.5089 59.8909 32.4112 59.8875 32.3171 59.901C29.358 60.3142 26.5992 63.2506 23.4225 62.0041H23.4213ZM71.7026 20.4807C71.8578 20.4146 71.9763 20.3306 72.0643 20.2355C72.5664 20.9085 73.1028 21.5581 73.6318 22.2143C74.2207 22.9456 74.7314 23.7553 75.3313 24.4832C75.4266 25.2839 76.2501 26.1675 76.6399 26.7667C77.5599 28.1822 78.541 29.5653 79.4549 30.9853C80.6913 32.9059 82.1403 34.6574 83.6175 36.428C85.058 38.156 86.6011 39.9657 87.4539 42.0219C86.5192 42.3276 85.6322 42.7151 84.7757 43.1518C84.6022 42.2391 84.1111 41.3533 83.5222 40.6108C83.3902 40.4439 83.1007 40.5884 83.2155 40.7754C83.7201 41.5985 83.9522 42.5146 84.331 43.3848C83.8203 43.6591 83.3181 43.9492 82.8245 44.2527C82.5338 43.4497 82.1904 42.5919 81.7042 41.8763C81.5062 41.5862 81.0004 41.8561 81.2032 42.145C81.7213 42.8819 81.918 43.7644 82.4348 44.4946C81.549 45.0512 80.6828 45.6402 79.8153 46.2248C77.6979 42.3847 75.7321 38.4796 73.528 34.6765C71.3031 30.8375 68.9292 27.0679 66.2767 23.463C68.0764 22.4528 69.7869 21.305 71.7038 20.4807H71.7026ZM43.8264 23.7318C45.5931 21.9545 47.9878 21.1694 50.5608 21.0127C55.0289 20.7405 59.3308 21.9668 63.6706 22.7339C63.5264 23.0296 63.5179 23.3812 63.7268 23.65C66.6163 27.3591 69.1784 31.2642 71.5939 35.2443C73.8591 38.9757 76.0986 42.7453 78.249 46.5373C77.7382 46.6582 77.23 46.908 76.7889 47.0759C75.7638 47.4679 74.7803 47.9629 73.7943 48.4321C71.5426 49.5016 69.2419 50.5745 67.0672 51.7705C66.9768 51.8198 66.9059 51.8769 66.8424 51.9363C66.6799 51.644 66.5064 51.3584 66.3316 51.0818C64.3829 48.011 61.7451 45.5518 58.6906 43.4038C57.0778 42.2694 55.4211 41.1819 53.8487 40.0072C54.5915 40.3454 55.3515 40.6108 56.0222 40.8157C58.4194 41.547 61.5093 41.9076 63.8355 40.7978C64.6138 40.426 63.9186 39.3252 63.1465 39.7171C61.1892 40.7105 58.6625 40.4047 56.594 39.9131C54.2702 39.361 52.1088 38.2713 50.7783 36.409C50.6183 36.185 50.2615 36.3294 50.3165 36.587C50.3568 36.7752 50.4167 36.9555 50.49 37.1302C50.3214 36.9588 50.1552 36.7841 49.9915 36.6061C49.9365 36.5456 49.8754 36.5041 49.8131 36.4773C49.8021 36.4034 49.7826 36.325 49.7532 36.2443C49.5846 35.7863 49.2755 35.3675 48.7123 35.279C48.1881 35.1972 47.6884 35.3271 47.4013 35.7684C45.9046 38.072 44.6254 40.3073 42.4225 42.1518C40.3638 43.8764 37.5732 45.0153 34.7705 45.1083C33.396 45.1542 32.862 44.5797 33.0978 43.3601C33.3972 41.8203 34.2366 40.3633 35.0234 38.9937C35.8078 37.6296 36.6838 36.3126 37.4792 34.9542C38.5446 33.1333 39.3937 31.2104 40.2856 29.3155C41.2166 27.3367 42.2258 25.3399 43.8239 23.7318H43.8264ZM34.5102 23.9188C36.8035 23.9658 39.1139 24.0017 41.3926 24.2637C41.0761 24.6971 40.778 25.1473 40.4994 25.6098C40.541 25.8304 40.4994 26.0735 40.3394 26.3221C39.6246 27.4297 39.0015 28.5731 38.5446 29.7915C38.4444 30.058 38.2709 30.2473 38.062 30.3705C36.547 33.4625 34.6006 36.2858 32.9366 39.305C31.9017 41.1831 29.8235 45.2281 33.0074 46.3939C34.1034 46.796 35.352 46.6313 36.4761 46.4354C38.3821 46.105 40.1989 45.5025 41.8544 44.5741C44.7427 42.9547 47.3194 40.2166 49.0251 37.4773C49.1008 37.4594 49.1729 37.4359 49.2413 37.4057C50.6561 39.7586 53.0533 41.435 55.3221 43.069C57.9221 44.9392 60.7127 46.7769 62.6761 49.2519C64.2681 51.2587 67.4936 54.7965 65.0121 57.1763C63.0096 59.0957 59.1598 57.594 57.299 56.2467C56.5745 55.7226 55.0753 56.1773 55.5201 57.1964C55.8047 57.8482 56.1285 58.5649 55.5054 59.1181C54.9373 59.6221 53.867 59.6456 53.1351 59.6546C51.3709 59.6759 48.7001 59.1999 47.576 57.8C47.0739 57.174 45.615 57.2625 45.747 58.2536C46.2149 61.7533 40.0914 62.0747 37.8433 60.4721C37.1334 59.9659 36.2818 60.2929 36.1694 61.1071C35.8994 63.0669 34.0203 64.0222 32.0923 64.385C31.7417 64.4511 31.5327 64.6392 31.435 64.8688C31.0062 64.777 30.5969 64.6448 30.1741 64.3816C29.5583 63.9986 29.022 63.4925 28.8851 62.8037C28.8778 62.7668 28.868 62.732 28.857 62.6985C29.5596 62.3479 30.2474 61.9604 30.95 61.6122C31.1564 61.5102 31.3666 61.4039 31.5792 61.2986C31.7343 61.4005 31.9445 61.4363 32.1656 61.3333C34.3037 60.3411 36.6093 59.3791 38.1377 57.6197C39.5745 55.9679 39.5587 53.8558 38.4334 52.0483C36.7876 49.4087 33.3117 50.0414 30.5419 51.1076C30.8828 49.5016 29.9224 47.5239 28.1276 46.89C26.3964 46.2786 24.637 46.7556 23.0047 47.5888C23.0755 46.9046 22.9008 46.161 22.5673 45.7869C21.7108 44.8238 20.0638 44.8384 18.8433 44.9515C18.7333 44.9616 18.6234 44.9773 18.5134 44.9907C19.5311 43.8238 19.7364 42.1574 18.357 40.9199C16.6221 39.3621 13.7484 40.949 12.1283 41.9625C12.1161 41.8561 12.0782 41.7441 12.0049 41.6265C11.6384 41.0453 11.2181 40.5089 10.7905 39.9635C10.5205 39.6186 10.2443 39.2994 9.87537 39.062C15.0399 33.2856 20.836 28.1005 27.2162 23.5055C27.265 23.5313 27.3164 23.5537 27.3738 23.5683C29.595 24.126 32.2194 23.8729 34.509 23.9188H34.5102ZM22.6882 14.6685C23.3627 16.495 24.8276 18.1637 26.5039 19.4728C24.0151 21.0507 21.8733 23.0117 19.5629 24.7934C19.4126 24.9088 19.6252 25.0936 19.7743 24.9872C22.1836 23.276 24.4244 21.3677 27.0231 19.8883C27.0305 19.8838 27.0353 19.8782 27.0427 19.8737C27.6096 20.2803 28.1912 20.6465 28.7703 20.9623C20.9814 25.1742 14.3715 31.2608 8.56805 37.5568C6.31752 35.4682 4.80251 32.7861 2.45179 30.7815C8.87961 25.0779 15.4198 19.465 22.6882 14.6685Z" fill="white"/>
<path d="M35.0332 8.2054C35.0772 8.63544 35.1346 9.06436 35.2152 9.49104C35.2678 9.76765 35.4853 9.92108 35.7394 9.97147C35.4926 10.2817 35.2604 10.5986 35.0515 10.9256C34.5469 11.7185 35.8237 12.3748 36.3759 11.6356C36.7865 11.0858 37.2263 10.5426 37.6759 10.0006C38.569 10.5941 39.4585 11.1821 40.3284 11.7745C40.6436 11.9895 41.0493 11.5046 40.7475 11.2761C39.8996 10.6322 39.0578 9.98939 38.2257 9.34097C40.1378 7.05863 42.0963 4.74493 42.7207 1.91944C42.761 1.73466 42.6315 1.55883 42.4177 1.55547C40.2966 1.51964 38.4322 2.29796 37.1237 3.83334C36.8402 4.16595 36.5726 4.53775 36.332 4.93419C36.2476 3.75383 36.0827 2.59362 35.5989 1.53644C34.3001 -1.29689 31.1186 1.95976 29.9432 3.13788C29.6732 3.4089 29.6732 3.78854 29.9432 4.05844C31.4631 5.57925 33.2152 6.92872 35.0344 8.2054H35.0332ZM37.4083 4.68446C38.3222 3.07741 40.0999 2.18262 42.0169 2.12998C41.2448 4.6755 39.0248 6.4998 37.1029 8.45626C36.9428 8.32859 36.784 8.20092 36.624 8.07213C36.5873 6.90521 36.7486 5.84355 37.4083 4.68334V4.68446ZM33.8627 1.54428C34.5262 1.33822 34.63 2.5757 34.6789 2.92958C34.8548 4.17603 34.8695 5.43143 34.9281 6.68459C33.7186 5.67332 32.5346 4.63182 31.3825 3.54553C32.0581 2.74704 32.8584 1.85561 33.8627 1.54428Z" fill="white"/>
<path d="M47.1305 11.4709C47.9222 11.0028 48.7237 10.5268 49.5179 10.0408C49.8868 10.37 50.3047 10.6511 50.8007 10.6937C50.9266 10.7049 51.0891 10.5974 51.1074 10.4798C51.1673 10.0856 50.984 9.68801 50.6981 9.305C51.4153 8.84697 52.1203 8.37661 52.7996 7.88834C54.4221 6.72365 55.8015 5.31594 56.0446 3.37853C56.0727 3.15679 55.8174 2.95745 55.5901 2.96193C53.314 3.01008 51.2809 4.29348 49.9968 6.01476C49.524 3.94631 48.6125 1.49263 47.2319 2.30791C45.7706 3.17135 46.0761 5.47273 46.6516 6.68221C47.0315 7.48294 47.6791 8.20751 48.334 8.87384C47.552 9.29828 46.8018 9.75856 46.1665 10.3275C45.5263 10.9009 46.362 11.9256 47.1305 11.472V11.4709ZM55.0367 3.8444C54.559 5.43017 52.5674 6.54111 51.1819 7.36087C51.0341 7.44822 50.8826 7.53109 50.7299 7.61508C51.5094 5.7751 52.7861 4.15797 55.0367 3.8444ZM47.8098 4.16805C48.0151 4.64961 48.1678 5.15244 48.3034 5.65303C48.4256 6.10659 48.5527 6.57694 48.6516 7.05178C48.0138 6.1693 47.5655 5.19388 47.811 4.16805H47.8098Z" fill="white"/>
<path d="M22.2559 21.5534C23.2346 20.6933 24.4319 20.0292 25.3556 19.1265C25.5499 18.9362 25.3019 18.6271 25.0502 18.7626C23.8821 19.3897 22.818 20.3203 21.8723 21.2017C21.6267 21.4302 22.003 21.7751 22.2559 21.5534Z" fill="white"/>
<path d="M22.5063 18.4037C22.9852 18.1707 23.452 17.9533 23.882 17.6486C24.1191 17.4805 23.9957 17.0951 23.6658 17.178C23.1135 17.317 22.6175 17.5444 22.1007 17.7662C21.6364 17.9657 22.0445 18.6278 22.5063 18.4026V18.4037Z" fill="white"/>
<path d="M79.5131 42.4224C79.9212 43.2444 80.1973 44.2635 80.9133 44.9186C80.9646 44.9657 81.0575 44.9321 81.0562 44.8638C81.0416 43.8357 80.4319 42.7931 79.9762 41.8748C79.6683 41.2544 79.182 40.2823 78.3842 40.0975C78.2058 40.0561 78.0946 40.2498 78.2119 40.3696C78.7972 40.9699 79.1515 41.6956 79.5119 42.4224H79.5131Z" fill="white"/>
</svg>
